<?xml version="1.0" encoding="utf-8" standalone="no"?>
<!DOCTYPE svg PUBLIC "-//W3C//DTD SVG 1.1//EN"
  "http://www.w3.org/Graphics/SVG/1.1/DTD/svg11.dtd">
<svg xmlns:xlink="http://www.w3.org/1999/xlink" width="460.65pt" height="291.45pt" viewBox="0 0 460.65 291.45" xmlns="http://www.w3.org/2000/svg" version="1.1">
 <metadata>
  <rdf:RDF xmlns:dc="http://purl.org/dc/elements/1.1/" xmlns:cc="http://creativecommons.org/ns#" xmlns:rdf="http://www.w3.org/1999/02/22-rdf-syntax-ns#">
   <cc:Work>
    <dc:type rdf:resource="http://purl.org/dc/dcmitype/StillImage"/>
    <dc:date>2025-06-05T11:03:38.802900</dc:date>
    <dc:format>image/svg+xml</dc:format>
    <dc:creator>
     <cc:Agent>
      <dc:title>Matplotlib v3.9.4, https://matplotlib.org/</dc:title>
     </cc:Agent>
    </dc:creator>
   </cc:Work>
  </rdf:RDF>
 </metadata>
 <defs>
  <style type="text/css">*{stroke-linejoin: round; stroke-linecap: butt}</style>
 </defs>
 <g id="figure_1">
  <g id="patch_1">
   <path d="M 0 291.45 
L 460.65 291.45 
L 460.65 0 
L 0 0 
z
" style="fill: #ffffff"/>
  </g>
  <g id="axes_1">
   <g id="patch_2">
    <path d="M 14.25 277.2 
L 460.65 277.2 
L 460.65 0 
L 14.25 0 
z
" style="fill: #ffffff"/>
   </g>
   <g id="matplotlib.axis_1">
    <g id="text_1">
     <!-- GPU 资源 -->
     <g transform="translate(216.119531 289.159375) scale(0.1 -0.1)">
      <defs>
       <path id="NotoSansCJKjp-Regular-47" d="M 2483 -83 
C 3117 -83 3635 147 3936 461 
L 3936 2432 
L 2400 2432 
L 2400 1939 
L 3392 1939 
L 3392 710 
C 3206 538 2880 435 2547 435 
C 1536 435 979 1178 979 2362 
C 979 3533 1594 4262 2534 4262 
C 3014 4262 3315 4064 3552 3814 
L 3872 4198 
C 3603 4486 3174 4781 2522 4781 
C 1280 4781 371 3859 371 2342 
C 371 819 1254 -83 2483 -83 
z
" transform="scale(0.015625)"/>
       <path id="NotoSansCJKjp-Regular-50" d="M 640 0 
L 1235 0 
L 1235 1862 
L 2010 1862 
C 3040 1862 3738 2323 3738 3315 
C 3738 4339 3034 4698 1984 4698 
L 640 4698 
L 640 0 
z
M 1235 2342 
L 1235 4211 
L 1907 4211 
C 2733 4211 3149 3994 3149 3315 
C 3149 2643 2758 2342 1933 2342 
L 1235 2342 
z
" transform="scale(0.015625)"/>
       <path id="NotoSansCJKjp-Regular-55" d="M 2304 -83 
C 3264 -83 3994 429 3994 1939 
L 3994 4698 
L 3424 4698 
L 3424 1920 
C 3424 787 2931 435 2304 435 
C 1696 435 1216 787 1216 1920 
L 1216 4698 
L 621 4698 
L 621 1939 
C 621 429 1350 -83 2304 -83 
z
" transform="scale(0.015625)"/>
       <path id="NotoSansCJKjp-Regular-20" transform="scale(0.015625)"/>
       <path id="NotoSansCJKjp-Regular-8d44" d="M 2144 4474 
C 1850 4691 1261 4966 800 5126 
L 563 4794 
C 1024 4621 1606 4326 1894 4102 
L 2144 4474 
z
M 2182 3731 
C 1491 3514 800 3296 339 3168 
L 474 2726 
C 986 2893 1638 3110 2253 3315 
L 2182 3731 
z
M 5286 646 
L 5286 2374 
L 1184 2374 
L 1184 602 
L 1651 602 
L 1651 1939 
L 4806 1939 
L 4806 646 
L 5286 646 
z
M 3034 1754 
C 2842 698 2362 134 339 -115 
C 416 -211 518 -397 550 -506 
C 2694 -205 3283 480 3494 1754 
L 3034 1754 
z
M 3302 493 
C 4096 230 5152 -186 5683 -467 
L 5965 -77 
C 5408 205 4346 595 3565 838 
L 3302 493 
z
M 5274 4390 
C 5171 4186 5075 3974 4979 3827 
L 5395 3706 
C 5549 3955 5747 4339 5907 4691 
L 5562 4787 
L 5485 4768 
L 3322 4768 
C 3411 4934 3488 5101 3552 5267 
L 3098 5331 
C 2938 4890 2605 4352 2093 3955 
C 2195 3898 2349 3770 2426 3661 
C 2694 3885 2912 4134 3091 4390 
L 3846 4390 
C 3661 3731 3226 3149 2093 2842 
C 2182 2758 2304 2598 2349 2496 
C 3232 2758 3731 3174 4032 3693 
C 4435 3149 5056 2739 5766 2541 
C 5830 2656 5952 2829 6054 2912 
C 5254 3085 4570 3514 4218 4064 
C 4256 4173 4294 4275 4326 4390 
L 5274 4390 
z
" transform="scale(0.015625)"/>
       <path id="NotoSansCJKjp-Regular-6e90" d="M 1914 4602 
C 1696 4832 1222 5114 845 5293 
L 576 4954 
C 954 4762 1414 4454 1632 4230 
L 1914 4602 
z
M 1613 2950 
C 1382 3162 909 3424 531 3590 
L 262 3245 
C 653 3066 1120 2778 1338 2566 
L 1613 2950 
z
M 1370 1920 
C 1082 1197 678 365 397 -128 
L 826 -397 
C 1126 198 1478 986 1747 1658 
L 1370 1920 
z
M 3232 1363 
C 3053 909 2771 448 2458 128 
C 2560 70 2739 -58 2829 -122 
C 3142 218 3456 749 3661 1261 
L 3232 1363 
z
M 3430 2650 
L 5376 2650 
L 5376 2086 
L 3430 2086 
L 3430 2650 
z
M 3430 3552 
L 5376 3552 
L 5376 2995 
L 3430 2995 
L 3430 3552 
z
M 5818 1722 
L 5818 3917 
L 4480 3917 
C 4550 4128 4621 4378 4685 4602 
L 4653 4608 
L 6061 4608 
L 6061 5043 
L 2170 5043 
L 2170 3302 
C 2170 2253 2106 813 1382 -211 
C 1491 -256 1696 -384 1779 -461 
C 2528 602 2637 2189 2637 3302 
L 2637 4608 
L 4160 4608 
C 4128 4397 4077 4134 4026 3917 
L 3008 3917 
L 3008 1722 
L 4147 1722 
L 4147 13 
C 4147 -58 4122 -77 4038 -83 
C 3968 -83 3686 -90 3379 -77 
C 3437 -192 3494 -365 3514 -480 
C 3942 -486 4211 -486 4384 -416 
C 4563 -352 4602 -224 4602 6 
L 4602 1722 
L 5818 1722 
z
M 5030 1248 
C 5325 845 5632 301 5760 -45 
L 6182 154 
C 6061 506 5734 1030 5434 1421 
L 5030 1248 
z
" transform="scale(0.015625)"/>
      </defs>
      <use xlink:href="#NotoSansCJKjp-Regular-47"/>
      <use xlink:href="#NotoSansCJKjp-Regular-50" x="68.899994"/>
      <use xlink:href="#NotoSansCJKjp-Regular-55" x="132.099991"/>
      <use xlink:href="#NotoSansCJKjp-Regular-20" x="204.199982"/>
      <use xlink:href="#NotoSansCJKjp-Regular-8d44" x="226.599976"/>
      <use xlink:href="#NotoSansCJKjp-Regular-6e90" x="326.59996"/>
     </g>
    </g>
   </g>
   <g id="matplotlib.axis_2">
    <g id="text_2">
     <!-- 训练时间 -->
     <g transform="translate(7.959375 158.6) rotate(-90) scale(0.1 -0.1)">
      <defs>
       <path id="NotoSansCJKjp-Regular-8bad" d="M 2048 4205 
C 1811 4480 1318 4909 934 5210 
L 640 4896 
C 1018 4582 1498 4134 1728 3846 
L 2048 4205 
z
M 1638 691 
L 1638 3354 
L 282 3354 
L 282 2893 
L 1178 2893 
L 1178 589 
C 1178 275 986 70 870 -26 
C 954 -96 1082 -269 1133 -365 
C 1222 -230 1389 -83 2432 787 
C 2368 870 2285 1056 2240 1178 
L 1638 691 
z
M 2758 2957 
C 2758 1824 2688 717 2086 -211 
C 2221 -269 2432 -397 2534 -486 
C 3155 518 3226 1734 3226 2957 
L 3226 5165 
L 2758 5165 
L 2758 2957 
z
M 4096 326 
L 4544 326 
L 4544 4858 
L 4096 4858 
L 4096 326 
z
M 5421 5190 
L 5421 -403 
L 5888 -403 
L 5888 5190 
L 5421 5190 
z
" transform="scale(0.015625)"/>
       <path id="NotoSansCJKjp-Regular-7ec3" d="M 467 1171 
C 595 1242 794 1306 2240 1619 
C 2227 1715 2227 1894 2234 2022 
L 1094 1798 
C 1523 2368 1946 3059 2285 3744 
L 1882 3968 
C 1779 3738 1670 3507 1549 3290 
L 870 3213 
C 1216 3770 1549 4493 1786 5171 
L 1344 5370 
C 1133 4595 736 3757 608 3552 
C 480 3334 384 3174 275 3149 
C 333 3021 410 2803 435 2701 
C 518 2746 659 2784 1318 2874 
C 1075 2470 858 2138 755 2016 
C 589 1779 454 1626 326 1594 
C 378 1491 435 1312 467 1203 
L 467 1171 
z
M 2170 1030 
C 1472 781 774 525 314 371 
L 429 -90 
C 947 122 1606 397 2246 666 
L 2170 1030 
z
M 3002 1510 
C 2822 1050 2458 467 2093 96 
C 2189 32 2342 -90 2426 -173 
C 2816 237 3200 858 3443 1389 
L 3002 1510 
z
M 3085 2336 
C 3194 2579 3296 2848 3405 3123 
L 4038 3123 
L 4038 2336 
L 3085 2336 
z
M 5818 1901 
L 5818 2336 
L 4493 2336 
L 4493 3565 
L 3565 3565 
C 3629 3763 3699 3968 3763 4173 
L 5946 4173 
L 5946 4608 
L 3885 4608 
C 3949 4838 4006 5075 4064 5299 
L 3590 5389 
C 3546 5126 3488 4864 3418 4608 
L 2304 4608 
L 2304 4173 
L 3296 4173 
C 3238 3955 3168 3750 3104 3565 
L 2406 3565 
L 2406 3123 
L 2950 3123 
C 2899 2982 2861 2880 2829 2816 
C 2694 2496 2592 2266 2477 2234 
C 2528 2118 2605 1901 2630 1805 
C 2682 1862 2893 1901 3194 1901 
L 4038 1901 
L 4038 70 
C 4038 -13 4006 -38 3917 -45 
C 3827 -51 3526 -51 3200 -45 
C 3258 -173 3322 -352 3341 -480 
C 3782 -480 4077 -474 4262 -397 
C 4435 -320 4493 -198 4493 70 
L 4493 1901 
L 5818 1901 
z
M 4954 1338 
C 5235 877 5574 250 5734 -115 
L 6138 90 
C 5965 442 5613 1056 5331 1504 
L 4954 1338 
z
" transform="scale(0.015625)"/>
       <path id="NotoSansCJKjp-Regular-65f6" d="M 2080 4390 
L 2080 2995 
L 992 2995 
L 992 4390 
L 2080 4390 
z
M 992 1120 
L 992 2566 
L 2080 2566 
L 2080 1120 
L 992 1120 
z
M 2528 4819 
L 544 4819 
L 544 179 
L 992 179 
L 992 685 
L 2528 685 
L 2528 4819 
z
M 6131 4077 
L 5357 4077 
L 5357 5318 
L 4883 5318 
L 4883 4077 
L 2816 4077 
L 2816 3610 
L 4883 3610 
L 4883 218 
C 4883 90 4832 51 4704 45 
C 4563 38 4090 38 3597 51 
C 3674 -77 3744 -294 3770 -422 
C 4410 -429 4813 -422 5037 -339 
C 5261 -269 5357 -122 5357 218 
L 5357 3610 
L 6131 3610 
L 6131 4077 
z
M 4422 1574 
C 4211 1958 3763 2611 3424 3098 
L 3034 2893 
C 3373 2400 3802 1722 4006 1331 
L 4422 1574 
z
" transform="scale(0.015625)"/>
       <path id="NotoSansCJKjp-Regular-95f4" d="M 608 -493 
L 1088 -493 
L 1088 3917 
L 608 3917 
L 608 -493 
z
M 704 5043 
C 992 4762 1325 4365 1472 4109 
L 1856 4365 
C 1709 4627 1363 5005 1069 5267 
L 704 5043 
z
M 2432 1894 
L 3955 1894 
L 3955 1037 
L 2432 1037 
L 2432 1894 
z
M 2432 3142 
L 3955 3142 
L 3955 2291 
L 2432 2291 
L 2432 3142 
z
M 2003 640 
L 4403 640 
L 4403 3539 
L 2003 3539 
L 2003 640 
z
M 5818 4992 
L 2259 4992 
L 2259 4544 
L 5331 4544 
L 5331 90 
C 5331 6 5306 -26 5222 -26 
C 5152 -26 4883 -32 4614 -19 
C 4678 -147 4742 -339 4768 -467 
C 5158 -467 5427 -461 5594 -378 
C 5760 -301 5818 -179 5818 90 
L 5818 4992 
z
" transform="scale(0.015625)"/>
      </defs>
      <use xlink:href="#NotoSansCJKjp-Regular-8bad"/>
      <use xlink:href="#NotoSansCJKjp-Regular-7ec3" x="99.999985"/>
      <use xlink:href="#NotoSansCJKjp-Regular-65f6" x="199.999969"/>
      <use xlink:href="#NotoSansCJKjp-Regular-95f4" x="299.999954"/>
     </g>
    </g>
   </g>
   <g id="line2d_1">
    <path d="M 34.540909 25.2 
L 37.793961 39.816705 
L 41.047012 53.416039 
L 44.300064 66.068814 
L 47.553115 77.840912 
L 50.806167 88.793633 
L 54.059218 98.984008 
L 57.31227 108.465099 
L 60.565322 117.286274 
L 63.818373 125.493465 
L 67.071425 133.129409 
L 70.324476 140.233865 
L 73.577528 146.843827 
L 76.830579 152.993713 
L 80.083631 158.715547 
L 83.336682 164.039122 
L 86.589734 168.992158 
L 89.842786 173.600446 
L 93.095837 177.887982 
L 96.348889 181.877091 
L 100.415203 186.47532 
L 104.481518 190.677026 
L 108.547832 194.516404 
L 112.614146 198.024698 
L 116.680461 201.23046 
L 120.746775 204.159777 
L 124.81309 206.836488 
L 128.879404 209.282377 
L 133.758982 211.940661 
L 138.638559 214.326294 
L 143.518136 216.46724 
L 148.397714 218.388597 
L 154.090554 220.382559 
L 159.783394 222.140022 
L 166.289497 223.894788 
L 172.7956 225.41378 
L 180.114966 226.880097 
L 187.434332 228.126708 
L 195.566961 229.294021 
L 204.512853 230.356835 
L 214.272008 231.29938 
L 225.657688 232.169794 
L 238.669894 232.929379 
L 253.308626 233.558839 
L 271.20041 234.096364 
L 293.158508 234.521834 
L 321.622709 234.83927 
L 362.285854 235.053602 
L 432.226462 235.168962 
L 440.359091 235.174084 
L 440.359091 235.174084 
" clip-path="url(#pa6d2bc0bb5)" style="fill: none; stroke: #0000ff; stroke-width: 2; stroke-linecap: square"/>
   </g>
   <g id="line2d_2">
    <path d="M 34.540909 56.7 
L 37.793961 67.13537 
L 41.047012 76.922544 
L 44.300064 86.101785 
L 47.553115 94.710854 
L 50.806167 102.785169 
L 54.059218 110.357945 
L 57.31227 117.460336 
L 60.565322 124.121559 
L 63.818373 130.369019 
L 67.071425 136.228416 
L 71.137739 143.043527 
L 75.204054 149.333659 
L 79.270368 155.139251 
L 83.336682 160.49763 
L 87.402997 165.443243 
L 91.469311 170.007888 
L 95.535626 174.220911 
L 99.60194 178.109398 
L 103.668255 181.698348 
L 107.734569 185.010836 
L 111.800884 188.068157 
L 116.680461 191.427691 
L 121.560038 194.479119 
L 126.439616 197.250698 
L 131.319193 199.768094 
L 136.19877 202.054618 
L 141.89161 204.45857 
L 147.584451 206.607327 
L 153.277291 208.52798 
L 159.783394 210.474643 
L 166.289497 212.186981 
L 173.608863 213.868257 
L 180.928229 215.323632 
L 189.060858 216.712548 
L 198.00675 218.003941 
L 207.765905 219.175823 
L 218.338322 220.215094 
L 230.537265 221.173745 
L 243.549472 221.971578 
L 259.001467 222.68803 
L 276.89325 223.286019 
L 298.851348 223.782825 
L 326.502286 224.168232 
L 363.099116 224.441534 
L 419.214256 224.614497 
L 440.359091 224.643642 
L 440.359091 224.643642 
" clip-path="url(#pa6d2bc0bb5)" style="fill: none; stroke-dasharray: 7.4,3.2; stroke-dashoffset: 0; stroke: #ff0000; stroke-width: 2"/>
   </g>
   <g id="patch_3">
    <path d="M 14.25 277.2 
L 14.25 0 
" style="fill: none; stroke: #000000; stroke-width: 0.8; stroke-linejoin: miter; stroke-linecap: square"/>
   </g>
   <g id="patch_4">
    <path d="M 460.65 277.2 
L 460.65 0 
" style="fill: none; stroke: #000000; stroke-width: 0.8; stroke-linejoin: miter; stroke-linecap: square"/>
   </g>
   <g id="patch_5">
    <path d="M 14.25 277.2 
L 460.65 277.2 
" style="fill: none; stroke: #000000; stroke-width: 0.8; stroke-linejoin: miter; stroke-linecap: square"/>
   </g>
   <g id="patch_6">
    <path d="M 14.25 0 
L 460.65 0 
" style="fill: none; stroke: #000000; stroke-width: 0.8; stroke-linejoin: miter; stroke-linecap: square"/>
   </g>
   <g id="legend_1">
    <g id="patch_7">
     <path d="M 325.648438 38.5 
L 453.65 38.5 
Q 455.65 38.5 455.65 36.5 
L 455.65 7 
Q 455.65 5 453.65 5 
L 325.648438 5 
Q 323.648438 5 323.648438 7 
L 323.648438 36.5 
Q 323.648438 38.5 325.648438 38.5 
z
" style="fill: #ffffff; opacity: 0.8; stroke: #cccccc; stroke-linejoin: miter"/>
    </g>
    <g id="line2d_3">
     <path d="M 327.648438 13.459375 
L 337.648438 13.459375 
L 347.648438 13.459375 
" style="fill: none; stroke: #0000ff; stroke-width: 2; stroke-linecap: square"/>
    </g>
    <g id="text_3">
     <!-- distribute all models -->
     <g transform="translate(355.648438 16.959375) scale(0.1 -0.1)">
      <defs>
       <path id="NotoSansCJKjp-Regular-64" d="M 1773 -83 
C 2189 -83 2554 141 2829 410 
L 2848 410 
L 2899 0 
L 3373 0 
L 3373 5094 
L 2797 5094 
L 2797 3757 
L 2822 3155 
C 2515 3411 2253 3565 1843 3565 
C 1050 3565 339 2861 339 1734 
C 339 576 902 -83 1773 -83 
z
M 1901 403 
C 1286 403 941 902 941 1741 
C 941 2534 1382 3072 1946 3072 
C 2234 3072 2496 2970 2797 2707 
L 2797 883 
C 2502 563 2221 403 1901 403 
z
" transform="scale(0.015625)"/>
       <path id="NotoSansCJKjp-Regular-69" d="M 589 0 
L 1171 0 
L 1171 3475 
L 589 3475 
L 589 0 
z
M 883 4192 
C 1114 4192 1274 4346 1274 4582 
C 1274 4806 1114 4960 883 4960 
C 653 4960 493 4806 493 4582 
C 493 4346 653 4192 883 4192 
z
" transform="scale(0.015625)"/>
       <path id="NotoSansCJKjp-Regular-73" d="M 1498 -83 
C 2317 -83 2765 384 2765 947 
C 2765 1606 2208 1811 1702 2003 
C 1312 2150 954 2272 954 2605 
C 954 2874 1158 3104 1600 3104 
C 1907 3104 2150 2976 2387 2797 
L 2669 3174 
C 2400 3386 2022 3565 1594 3565 
C 838 3565 390 3130 390 2579 
C 390 1990 922 1754 1408 1574 
C 1792 1427 2202 1274 2202 915 
C 2202 614 1978 371 1517 371 
C 1101 371 787 538 486 781 
L 198 397 
C 531 122 1005 -83 1498 -83 
z
" transform="scale(0.015625)"/>
       <path id="NotoSansCJKjp-Regular-74" d="M 1683 -83 
C 1894 -83 2125 -19 2323 45 
L 2208 480 
C 2093 435 1933 390 1811 390 
C 1408 390 1274 634 1274 1062 
L 1274 3002 
L 2214 3002 
L 2214 3475 
L 1274 3475 
L 1274 4454 
L 787 4454 
L 717 3475 
L 173 3443 
L 173 3002 
L 691 3002 
L 691 1075 
C 691 384 941 -83 1683 -83 
z
" transform="scale(0.015625)"/>
       <path id="NotoSansCJKjp-Regular-72" d="M 589 0 
L 1171 0 
L 1171 2234 
C 1402 2829 1760 3034 2048 3034 
C 2189 3034 2272 3021 2387 2976 
L 2496 3488 
C 2387 3546 2278 3565 2125 3565 
C 1734 3565 1382 3283 1139 2842 
L 1120 2842 
L 1069 3475 
L 589 3475 
L 589 0 
z
" transform="scale(0.015625)"/>
       <path id="NotoSansCJKjp-Regular-62" d="M 2118 -83 
C 2918 -83 3629 602 3629 1798 
C 3629 2861 3142 3565 2240 3565 
C 1856 3565 1466 3347 1152 3072 
L 1171 3699 
L 1171 5094 
L 589 5094 
L 589 0 
L 1056 0 
L 1107 358 
L 1133 358 
C 1434 83 1798 -83 2118 -83 
z
M 2022 403 
C 1792 403 1478 499 1171 768 
L 1171 2592 
C 1504 2906 1811 3072 2106 3072 
C 2765 3072 3021 2554 3021 1786 
C 3021 922 2598 403 2022 403 
z
" transform="scale(0.015625)"/>
       <path id="NotoSansCJKjp-Regular-75" d="M 1600 -83 
C 2080 -83 2426 166 2752 544 
L 2771 544 
L 2816 0 
L 3302 0 
L 3302 3475 
L 2720 3475 
L 2720 1011 
C 2387 595 2138 422 1779 422 
C 1318 422 1126 698 1126 1344 
L 1126 3475 
L 544 3475 
L 544 1274 
C 544 390 870 -83 1600 -83 
z
" transform="scale(0.015625)"/>
       <path id="NotoSansCJKjp-Regular-65" d="M 1990 -83 
C 2464 -83 2835 77 3142 275 
L 2931 659 
C 2675 486 2400 384 2061 384 
C 1402 384 947 858 909 1600 
L 3251 1600 
C 3264 1683 3277 1805 3277 1933 
C 3277 2925 2778 3565 1894 3565 
C 1088 3565 326 2861 326 1734 
C 326 589 1069 -83 1990 -83 
z
M 902 2022 
C 973 2701 1408 3098 1901 3098 
C 2445 3098 2765 2720 2765 2022 
L 902 2022 
z
" transform="scale(0.015625)"/>
       <path id="NotoSansCJKjp-Regular-61" d="M 1389 -83 
C 1818 -83 2208 141 2541 416 
L 2560 416 
L 2611 0 
L 3091 0 
L 3091 2138 
C 3091 2995 2733 3565 1888 3565 
C 1331 3565 838 3315 518 3110 
L 749 2707 
C 1024 2893 1389 3078 1792 3078 
C 2362 3078 2509 2650 2509 2202 
C 1030 2035 371 1658 371 902 
C 371 275 806 -83 1389 -83 
z
M 1555 384 
C 1210 384 941 544 941 941 
C 941 1389 1338 1677 2509 1818 
L 2509 845 
C 2170 544 1894 384 1555 384 
z
" transform="scale(0.015625)"/>
       <path id="NotoSansCJKjp-Regular-6c" d="M 1203 -83 
C 1363 -83 1459 -64 1542 -32 
L 1459 416 
C 1395 403 1370 403 1338 403 
C 1248 403 1171 474 1171 653 
L 1171 5094 
L 589 5094 
L 589 691 
C 589 198 768 -83 1203 -83 
z
" transform="scale(0.015625)"/>
       <path id="NotoSansCJKjp-Regular-6d" d="M 589 0 
L 1171 0 
L 1171 2522 
C 1491 2880 1786 3053 2048 3053 
C 2490 3053 2694 2778 2694 2125 
L 2694 0 
L 3277 0 
L 3277 2522 
C 3603 2880 3885 3053 4154 3053 
C 4595 3053 4800 2778 4800 2125 
L 4800 0 
L 5382 0 
L 5382 2202 
C 5382 3091 5043 3565 4326 3565 
C 3904 3565 3539 3290 3181 2899 
C 3040 3309 2752 3565 2221 3565 
C 1805 3565 1440 3302 1139 2970 
L 1120 2970 
L 1069 3475 
L 589 3475 
L 589 0 
z
" transform="scale(0.015625)"/>
       <path id="NotoSansCJKjp-Regular-6f" d="M 1939 -83 
C 2790 -83 3552 582 3552 1734 
C 3552 2893 2790 3565 1939 3565 
C 1088 3565 326 2893 326 1734 
C 326 582 1088 -83 1939 -83 
z
M 1939 403 
C 1338 403 934 934 934 1734 
C 934 2534 1338 3078 1939 3078 
C 2541 3078 2950 2534 2950 1734 
C 2950 934 2541 403 1939 403 
z
" transform="scale(0.015625)"/>
      </defs>
      <use xlink:href="#NotoSansCJKjp-Regular-64"/>
      <use xlink:href="#NotoSansCJKjp-Regular-69" x="61.999985"/>
      <use xlink:href="#NotoSansCJKjp-Regular-73" x="89.499969"/>
      <use xlink:href="#NotoSansCJKjp-Regular-74" x="136.299957"/>
      <use xlink:href="#NotoSansCJKjp-Regular-72" x="173.999954"/>
      <use xlink:href="#NotoSansCJKjp-Regular-69" x="212.799942"/>
      <use xlink:href="#NotoSansCJKjp-Regular-62" x="240.299927"/>
      <use xlink:href="#NotoSansCJKjp-Regular-75" x="302.099915"/>
      <use xlink:href="#NotoSansCJKjp-Regular-74" x="362.799911"/>
      <use xlink:href="#NotoSansCJKjp-Regular-65" x="400.499908"/>
      <use xlink:href="#NotoSansCJKjp-Regular-20" x="455.899902"/>
      <use xlink:href="#NotoSansCJKjp-Regular-61" x="478.299896"/>
      <use xlink:href="#NotoSansCJKjp-Regular-6c" x="534.69989"/>
      <use xlink:href="#NotoSansCJKjp-Regular-6c" x="563.199875"/>
      <use xlink:href="#NotoSansCJKjp-Regular-20" x="591.69986"/>
      <use xlink:href="#NotoSansCJKjp-Regular-6d" x="614.099854"/>
      <use xlink:href="#NotoSansCJKjp-Regular-6f" x="706.699844"/>
      <use xlink:href="#NotoSansCJKjp-Regular-64" x="767.299835"/>
      <use xlink:href="#NotoSansCJKjp-Regular-65" x="829.29982"/>
      <use xlink:href="#NotoSansCJKjp-Regular-6c" x="884.699814"/>
      <use xlink:href="#NotoSansCJKjp-Regular-73" x="913.199799"/>
     </g>
    </g>
    <g id="line2d_4">
     <path d="M 327.648438 28.709375 
L 337.648438 28.709375 
L 347.648438 28.709375 
" style="fill: none; stroke-dasharray: 7.4,3.2; stroke-dashoffset: 0; stroke: #ff0000; stroke-width: 2"/>
    </g>
    <g id="text_4">
     <!-- collocate all models -->
     <g transform="translate(355.648438 32.209375) scale(0.1 -0.1)">
      <defs>
       <path id="NotoSansCJKjp-Regular-63" d="M 1958 -83 
C 2374 -83 2771 77 3085 358 
L 2829 749 
C 2611 550 2330 403 2010 403 
C 1370 403 934 934 934 1734 
C 934 2534 1395 3078 2029 3078 
C 2304 3078 2515 2950 2720 2771 
L 3021 3155 
C 2771 3373 2458 3565 2003 3565 
C 1114 3565 326 2893 326 1734 
C 326 582 1037 -83 1958 -83 
z
" transform="scale(0.015625)"/>
      </defs>
      <use xlink:href="#NotoSansCJKjp-Regular-63"/>
      <use xlink:href="#NotoSansCJKjp-Regular-6f" x="50.899994"/>
      <use xlink:href="#NotoSansCJKjp-Regular-6c" x="111.499985"/>
      <use xlink:href="#NotoSansCJKjp-Regular-6c" x="139.999969"/>
      <use xlink:href="#NotoSansCJKjp-Regular-6f" x="168.499954"/>
      <use xlink:href="#NotoSansCJKjp-Regular-63" x="229.099945"/>
      <use xlink:href="#NotoSansCJKjp-Regular-61" x="279.999939"/>
      <use xlink:href="#NotoSansCJKjp-Regular-74" x="336.399933"/>
      <use xlink:href="#NotoSansCJKjp-Regular-65" x="374.09993"/>
      <use xlink:href="#NotoSansCJKjp-Regular-20" x="429.499924"/>
      <use xlink:href="#NotoSansCJKjp-Regular-61" x="451.899918"/>
      <use xlink:href="#NotoSansCJKjp-Regular-6c" x="508.299911"/>
      <use xlink:href="#NotoSansCJKjp-Regular-6c" x="536.799896"/>
      <use xlink:href="#NotoSansCJKjp-Regular-20" x="565.299881"/>
      <use xlink:href="#NotoSansCJKjp-Regular-6d" x="587.699875"/>
      <use xlink:href="#NotoSansCJKjp-Regular-6f" x="680.299866"/>
      <use xlink:href="#NotoSansCJKjp-Regular-64" x="740.899857"/>
      <use xlink:href="#NotoSansCJKjp-Regular-65" x="802.899841"/>
      <use xlink:href="#NotoSansCJKjp-Regular-6c" x="858.299835"/>
      <use xlink:href="#NotoSansCJKjp-Regular-73" x="886.79982"/>
     </g>
    </g>
   </g>
  </g>
 </g>
 <defs>
  <clipPath id="pa6d2bc0bb5">
   <rect x="14.25" y="0" width="446.4" height="277.2"/>
  </clipPath>
 </defs>
</svg>
