<svg width="5672" height="1914" xmlns="http://www.w3.org/2000/svg" xmlns:xlink="http://www.w3.org/1999/xlink" xml:space="preserve" overflow="hidden"><g transform="translate(1671 -654)"><rect x="1845" y="657" width="2156" height="711" fill="#E2F0D9"/><path d="M1893 945.001C1893 903.579 1926.58 870 1968 870L2757 870C2798.42 870 2832 903.579 2832 945.001L2832 1245C2832 1286.42 2798.42 1320 2757 1320L1968 1320C1926.58 1320 1893 1286.42 1893 1245Z" fill="#B4C7E7" fill-rule="evenodd"/><text font-family="Times New Roman,Times New Roman_MSFontService,sans-serif" font-weight="400" font-size="83" transform="matrix(1 0 0 1 2574.97 759)">PPORayActorGroup</text><text font-family="Times New Roman,Times New Roman_MSFontService,sans-serif" font-weight="700" font-size="92" transform="matrix(1 0 0 1 2876.96 1128)">…</text><text font-family="Times New Roman,Times New Roman_MSFontService,sans-serif" font-weight="400" font-size="83" transform="matrix(1 0 0 1 1926.69 977)">Referenc</text><text font-family="Times New Roman,Times New Roman_MSFontService,sans-serif" font-weight="400" font-size="83" transform="matrix(1 0 0 1 2224.6 977)">e</text><text font-family="Times New Roman,Times New Roman_MSFontService,sans-serif" font-weight="400" font-size="83" transform="matrix(1 0 0 1 2261.27 977)">ModelRayActor</text><path d="M1981 1083.67C1981 1063.97 1996.97 1048 2016.67 1048L2707.33 1048C2727.03 1048 2743 1063.97 2743 1083.67L2743 1226.33C2743 1246.03 2727.03 1262 2707.33 1262L2016.67 1262C1996.97 1262 1981 1246.03 1981 1226.33Z" fill="#FFF2CC" fill-rule="evenodd"/><text font-family="Times New Roman,Times New Roman_MSFontService,sans-serif" font-weight="400" font-size="83" transform="matrix(1 0 0 1 2057.31 1185)">DeepSpeedEngine</text><path d="M3016 945.001C3016 903.579 3049.58 870 3091 870L3880 870C3921.42 870 3955 903.579 3955 945.001L3955 1245C3955 1286.42 3921.42 1320 3880 1320L3091 1320C3049.58 1320 3016 1286.42 3016 1245Z" fill="#B4C7E7" fill-rule="evenodd"/><text font-family="Times New Roman,Times New Roman_MSFontService,sans-serif" font-weight="400" font-size="83" transform="matrix(1 0 0 1 3049.6 977)">Referenc</text><text font-family="Times New Roman,Times New Roman_MSFontService,sans-serif" font-weight="400" font-size="83" transform="matrix(1 0 0 1 3347.52 977)">e</text><text font-family="Times New Roman,Times New Roman_MSFontService,sans-serif" font-weight="400" font-size="83" transform="matrix(1 0 0 1 3384.19 977)">ModelRayActor</text><path d="M3104 1083.67C3104 1063.97 3119.97 1048 3139.67 1048L3830.33 1048C3850.03 1048 3866 1063.97 3866 1083.67L3866 1226.33C3866 1246.03 3850.03 1262 3830.33 1262L3139.67 1262C3119.97 1262 3104 1246.03 3104 1226.33Z" fill="#FFF2CC" fill-rule="evenodd"/><text font-family="Times New Roman,Times New Roman_MSFontService,sans-serif" font-weight="400" font-size="83" transform="matrix(1 0 0 1 3180.23 1185)">DeepSpeedEngine</text><rect x="-140" y="1857" width="1816" height="711" fill="#E2F0D9"/><path d="M-92.0001 2145C-92.0001 2103.58-58.4209 2070-16.9987 2070L623.998 2070C665.421 2070 699 2103.58 699 2145L699 2445C699 2486.42 665.421 2520 623.998 2520L-16.9987 2520C-58.4209 2520-92.0001 2486.42-92.0001 2445Z" fill="#B4C7E7" fill-rule="evenodd"/><text font-family="Times New Roman,Times New Roman_MSFontService,sans-serif" font-weight="400" font-size="83" transform="matrix(1 0 0 1 421.28 1959)">PPORayActorGroup</text><text font-family="Times New Roman,Times New Roman_MSFontService,sans-serif" font-weight="700" font-size="92" transform="matrix(1 0 0 1 733.677 2315)">…</text><text font-family="Times New Roman,Times New Roman_MSFontService,sans-serif" font-weight="400" font-size="83" transform="matrix(1 0 0 1 -59.1073 2177)">Critic</text><text font-family="Times New Roman,Times New Roman_MSFontService,sans-serif" font-weight="400" font-size="83" transform="matrix(1 0 0 1 128.809 2177)">ModelRayActor</text><path d="M-49.9998 2283.5C-49.9998 2263.89-34.1056 2248-14.4991 2248L620.499 2248C640.106 2248 656 2263.89 656 2283.5L656 2425.5C656 2445.11 640.106 2461 620.499 2461L-14.4991 2461C-34.1056 2461-49.9998 2445.11-49.9998 2425.5Z" fill="#FFF2CC" fill-rule="evenodd"/><text font-family="Times New Roman,Times New Roman_MSFontService,sans-serif" font-weight="400" font-size="83" transform="matrix(1 0 0 1 -1.81601 2385)">DeepSpeedEngine</text><path d="M849 2145C849 2103.58 882.58 2070 924.002 2070L1566 2070C1607.42 2070 1641 2103.58 1641 2145L1641 2445C1641 2486.42 1607.42 2520 1566 2520L924.002 2520C882.58 2520 849 2486.42 849 2445Z" fill="#B4C7E7" fill-rule="evenodd"/><text font-family="Times New Roman,Times New Roman_MSFontService,sans-serif" font-weight="400" font-size="83" transform="matrix(1 0 0 1 882.481 2177)">Critic</text><text font-family="Times New Roman,Times New Roman_MSFontService,sans-serif" font-weight="400" font-size="83" transform="matrix(1 0 0 1 1070.4 2177)">ModelRayActor</text><path d="M891 2283.5C891 2263.89 906.894 2248 926.501 2248L1562.5 2248C1582.11 2248 1598 2263.89 1598 2283.5L1598 2425.5C1598 2445.11 1582.11 2461 1562.5 2461L926.501 2461C906.894 2461 891 2445.11 891 2425.5Z" fill="#FFF2CC" fill-rule="evenodd"/><text font-family="Times New Roman,Times New Roman_MSFontService,sans-serif" font-weight="400" font-size="83" transform="matrix(1 0 0 1 939.772 2385)">DeepSpeedEngine</text><rect x="-321" y="657" width="2019" height="711" fill="#E2F0D9"/><path d="M-273 945.001C-273 903.579-239.421 870-197.999 870L484.999 870C526.421 870 560 903.579 560 945.001L560 1245C560 1286.42 526.421 1320 484.999 1320L-197.999 1320C-239.421 1320-273 1286.42-273 1245Z" fill="#B4C7E7" fill-rule="evenodd"/><text font-family="Times New Roman,Times New Roman_MSFontService,sans-serif" font-weight="400" font-size="83" transform="matrix(1 0 0 1 329.041 759)">PPORayActorGroup</text><path d="M817 945.001C817 903.579 850.579 870 892.001 870L1575 870C1616.42 870 1650 903.579 1650 945.001L1650 1245C1650 1286.42 1616.42 1320 1575 1320L892.001 1320C850.579 1320 817 1286.42 817 1245Z" fill="#B4C7E7" fill-rule="evenodd"/><text font-family="Times New Roman,Times New Roman_MSFontService,sans-serif" font-weight="700" font-size="92" transform="matrix(1 0 0 1 641.437 980)">…</text><text font-family="Times New Roman,Times New Roman_MSFontService,sans-serif" font-weight="400" font-size="83" transform="matrix(1 0 0 1 -219.492 977)">ActorModelRayActor</text><text font-family="Times New Roman,Times New Roman_MSFontService,sans-serif" font-weight="400" font-size="83" transform="matrix(1 0 0 1 871.406 977)">ActorModelRayActor</text><path d="M-238 1083.67C-238 1063.97-222.031 1048-202.332 1048L488.332 1048C508.031 1048 524 1063.97 524 1083.67L524 1226.33C524 1246.03 508.031 1262 488.332 1262L-202.332 1262C-222.031 1262-238 1246.03-238 1226.33Z" fill="#FFF2CC" fill-rule="evenodd"/><text font-family="Times New Roman,Times New Roman_MSFontService,sans-serif" font-weight="400" font-size="83" transform="matrix(1 0 0 1 -162.2 1186)">DeepSpeedEngine</text><path d="M853 1083.67C853 1063.97 868.969 1048 888.667 1048L1578.33 1048C1598.03 1048 1614 1063.97 1614 1083.67L1614 1226.33C1614 1246.03 1598.03 1262 1578.33 1262L888.667 1262C868.969 1262 853 1246.03 853 1226.33Z" fill="#FFF2CC" fill-rule="evenodd"/><text font-family="Times New Roman,Times New Roman_MSFontService,sans-serif" font-weight="400" font-size="83" transform="matrix(1 0 0 1 928.697 1186)">DeepSpeedEngine</text><rect x="1962" y="1854" width="1993" height="711" fill="#E2F0D9"/><path d="M2010 2142C2010 2100.58 2043.58 2067 2085 2067L2804 2067C2845.42 2067 2879 2100.58 2879 2142L2879 2442C2879 2483.42 2845.42 2517 2804 2517L2085 2517C2043.58 2517 2010 2483.42 2010 2442Z" fill="#B4C7E7" fill-rule="evenodd"/><text font-family="Times New Roman,Times New Roman_MSFontService,sans-serif" font-weight="400" font-size="83" transform="matrix(1 0 0 1 2609.72 1954)">PPORayActorGroup</text><text font-family="Times New Roman,Times New Roman_MSFontService,sans-serif" font-weight="700" font-size="92" transform="matrix(1 0 0 1 2913.69 2325)">…</text><text font-family="Times New Roman,Times New Roman_MSFontService,sans-serif" font-weight="400" font-size="83" transform="matrix(1 0 0 1 2047.83 2174)">Reward</text><text font-family="Times New Roman,Times New Roman_MSFontService,sans-serif" font-weight="400" font-size="83" transform="matrix(1 0 0 1 2304.49 2174)">ModelRayActor</text><path d="M2091 2283.67C2091 2263.97 2106.97 2248 2126.67 2248L2762.33 2248C2782.03 2248 2798 2263.97 2798 2283.67L2798 2426.33C2798 2446.03 2782.03 2462 2762.33 2462L2126.67 2462C2106.97 2462 2091 2446.03 2091 2426.33Z" fill="#FFF2CC" fill-rule="evenodd"/><text font-family="Times New Roman,Times New Roman_MSFontService,sans-serif" font-weight="400" font-size="83" transform="matrix(1 0 0 1 2139.49 2385)">DeepSpeedEngine</text><path d="M3040 2142C3040 2100.58 3073.58 2067 3115 2067L3834 2067C3875.42 2067 3909 2100.58 3909 2142L3909 2442C3909 2483.42 3875.42 2517 3834 2517L3115 2517C3073.58 2517 3040 2483.42 3040 2442Z" fill="#B4C7E7" fill-rule="evenodd"/><text font-family="Times New Roman,Times New Roman_MSFontService,sans-serif" font-weight="400" font-size="83" transform="matrix(1 0 0 1 3077.42 2174)">Reward</text><text font-family="Times New Roman,Times New Roman_MSFontService,sans-serif" font-weight="400" font-size="83" transform="matrix(1 0 0 1 3334.09 2174)">ModelRayActor</text><path d="M3120 2283.67C3120 2263.97 3135.97 2248 3155.67 2248L3791.33 2248C3811.03 2248 3827 2263.97 3827 2283.67L3827 2426.33C3827 2446.03 3811.03 2462 3791.33 2462L3155.67 2462C3135.97 2462 3120 2446.03 3120 2426.33Z" fill="#FFF2CC" fill-rule="evenodd"/><text font-family="Times New Roman,Times New Roman_MSFontService,sans-serif" font-weight="400" font-size="83" transform="matrix(1 0 0 1 3169.09 2385)">DeepSpeedEngine</text><rect x="-1671" y="1274" width="1197" height="710" fill="#E2F0D9"/><path d="M-1623 1561C-1623 1519.58-1589.42 1486-1548 1486L-597.002 1486C-555.579 1486-522 1519.58-522 1561L-522 1861C-522 1902.42-555.579 1936-597.002 1936L-1548 1936C-1589.42 1936-1623 1902.42-1623 1861Z" fill="#B4C7E7" fill-rule="evenodd"/><text font-family="Times New Roman,Times New Roman_MSFontService,sans-serif" font-weight="400" font-size="83" transform="matrix(1 0 0 1 -1322.58 1380)">LLMRayActor</text><text font-family="Times New Roman,Times New Roman_MSFontService,sans-serif" font-weight="400" font-size="83" transform="matrix(1 0 0 1 -1245.36 1588)">vllm.LLM</text><path d="M-1589 1700.5C-1589 1680.89-1573.11 1665-1553.5 1665L-591.501 1665C-571.894 1665-556 1680.89-556 1700.5L-556 1842.5C-556 1862.11-571.894 1878-591.501 1878L-1553.5 1878C-1573.11 1878-1589 1862.11-1589 1842.5Z" fill="#FFF2CC" fill-rule="evenodd"/><text font-family="Times New Roman,Times New Roman_MSFontService,sans-serif" font-weight="400" font-size="83" transform="matrix(1 0 0 1 -1542.13 1802)">LLMEngine</text><text font-family="Times New Roman,Times New Roman_MSFontService,sans-serif" font-weight="400" font-size="83" transform="matrix(1 0 0 1 -1134.22 1802)">/V1LLMEngine</text><path d="M1481 1536.33C1481 1515.16 1498.16 1498 1519.33 1498L2211.67 1498C2232.84 1498 2250 1515.16 2250 1536.33L2250 1689.67C2250 1710.84 2232.84 1728 2211.67 1728L1519.33 1728C1498.16 1728 1481 1710.84 1481 1689.67Z" fill="#FBE5D6" fill-rule="evenodd"/><text font-family="Times New Roman,Times New Roman_MSFontService,sans-serif" font-weight="400" font-size="83" transform="matrix(1 0 0 1 1547.08 1643)">DeepspeedStrategy</text><path d="M1481.27 1613.65 1446.58 1613.32 1411.96 1612.34 1377.47 1610.73 1343.19 1608.51 1309.17 1605.7 1275.5 1602.33 1242.23 1598.42 1209.44 1593.98 1177.18 1589.04 1145.54 1583.61 1114.57 1577.73 1084.35 1571.4 1054.94 1564.66 1026.41 1557.51 998.832 1549.99 972.265 1542.11 946.779 1533.9 922.444 1525.37 899.325 1516.54 877.491 1507.44 857.008 1498.09 837.949 1488.5 828.965 1483.63 820.365 1478.7 812.154 1473.72 804.339 1468.7 796.929 1463.64 789.932 1458.53 783.356 1453.38 777.21 1448.19 771.503 1442.97 766.243 1437.72 761.438 1432.43 757.098 1427.12 753.231 1421.77 749.846 1416.4 746.955 1411.01 744.565 1405.59 742.688 1400.15 741.335 1394.69 740.516 1389.23 740.243 1383.8 739.927 1373.07 739.931 1373.13 738.999 1362.43 739.006 1362.5 737.477 1351.84 737.488 1351.9 735.381 1341.31 735.394 1341.37 732.731 1330.86 732.746 1330.91 729.545 1320.51 729.563 1320.56 725.845 1310.28 725.864 1310.33 721.648 1300.2 721.669 1300.25 716.976 1290.28 716.999 1290.33 711.847 1280.55 711.872 1280.59 706.282 1271.03 706.308 1271.07 700.301 1261.73 700.328 1261.77 693.923 1252.69 693.951 1252.72 687.168 1243.91 687.213 1243.97 672.591 1227.24 672.64 1227.29 664.842 1219.42 664.876 1219.45 656.779 1211.94 656.816 1211.97 648.44 1204.83 648.478 1204.86 639.844 1198.12 639.884 1198.15 631.011 1191.83 631.053 1191.86 621.961 1185.98 622.006 1186.01 612.715 1180.59 612.763 1180.61 603.292 1175.67 603.343 1175.7 593.713 1171.26 593.767 1171.29 583.998 1167.37 584.054 1167.39 574.166 1164.03 574.226 1164.04 564.238 1161.24 564.301 1161.26 554.234 1159.04 554.347 1159.06 546.694 1158.16 546.96 1155.89 554.671 1156.79 564.826 1159.03 574.875 1161.85 584.822 1165.23 594.646 1169.17 604.327 1173.63 613.846 1178.59 623.184 1184.04 632.32 1189.95 641.234 1196.3 649.908 1203.07 658.32 1210.24 666.453 1217.79 674.293 1225.7 688.962 1242.48 695.782 1251.34 702.215 1260.47 708.249 1269.85 713.863 1279.46 719.038 1289.28 723.754 1299.29 727.99 1309.47 731.727 1319.81 734.945 1330.26 737.623 1340.83 739.741 1351.48 741.279 1362.2 742.217 1372.97 742.533 1383.72 742.532 1383.69 742.802 1389.05 742.791 1388.94 743.594 1394.3 743.572 1394.19 744.9 1399.55 744.871 1399.45 746.716 1404.8 746.681 1404.71 749.034 1410.04 748.995 1409.96 751.847 1415.28 751.807 1415.21 755.15 1420.52 755.109 1420.46 758.935 1425.75 758.894 1425.69 763.194 1430.96 763.154 1430.92 767.92 1436.16 767.882 1436.12 773.105 1441.34 773.068 1441.3 778.74 1446.49 778.706 1446.46 784.818 1451.61 784.785 1451.59 791.329 1456.71 791.298 1456.69 798.266 1461.77 798.237 1461.75 805.619 1466.8 805.591 1466.78 813.38 1471.79 813.354 1471.77 821.541 1476.73 821.517 1476.72 830.093 1481.63 830.07 1481.62 839.027 1486.48 838.995 1486.46 858.018 1496.03 857.98 1496.01 878.425 1505.35 878.39 1505.34 900.191 1514.42 900.159 1514.41 923.247 1523.22 923.217 1523.21 947.524 1531.73 947.496 1531.72 972.955 1539.93 972.929 1539.92 999.471 1547.79 999.447 1547.78 1027.01 1555.3 1026.98 1555.29 1055.49 1562.43 1055.47 1562.43 1084.85 1569.17 1084.83 1569.16 1115.03 1575.48 1115.01 1575.48 1145.96 1581.36 1145.94 1581.36 1177.56 1586.78 1177.54 1586.77 1209.77 1591.71 1209.75 1591.71 1242.53 1596.15 1242.51 1596.14 1275.76 1600.06 1275.74 1600.05 1309.39 1603.42 1309.37 1603.42 1343.36 1606.22 1343.34 1606.22 1377.61 1608.44 1377.59 1608.44 1412.06 1610.05 1412.04 1610.05 1446.64 1611.03 1446.62 1611.03 1481.29 1611.36ZM550.177 1171.13 524 1155 552.608 1143.73Z"/><path d="M1480.29 1614.06 1468.65 1613.55 1456.98 1612.03 1445.37 1609.54 1433.84 1606.12 1422.4 1601.79 1411.08 1596.59 1399.9 1590.55 1388.89 1583.71 1378.06 1576.1 1367.44 1567.75 1357.05 1558.69 1346.92 1548.95 1337.06 1538.58 1327.5 1527.59 1318.26 1516.02 1309.36 1503.91 1300.82 1491.29 1292.67 1478.18 1284.93 1464.62 1277.63 1450.65 1270.77 1436.29 1264.4 1421.57 1258.52 1406.54 1253.17 1391.21 1248.36 1375.62 1244.12 1359.81 1240.46 1343.81 1237.43 1327.64 1235.02 1311.35 1233.28 1294.95 1232.75 1284.96 1235.04 1284.84 1235.56 1294.79 1235.56 1294.73 1237.3 1311.08 1237.29 1311.04 1239.69 1327.29 1239.68 1327.24 1242.71 1343.36 1242.7 1343.32 1246.35 1359.28 1246.33 1359.24 1250.57 1375.01 1250.55 1374.97 1255.35 1390.51 1255.34 1390.47 1260.68 1405.76 1260.66 1405.72 1266.52 1420.72 1266.51 1420.68 1272.87 1435.36 1272.85 1435.32 1279.69 1449.64 1279.67 1449.6 1286.95 1463.54 1286.93 1463.51 1294.65 1477.03 1294.63 1476.99 1302.76 1490.06 1302.73 1490.02 1311.24 1502.61 1311.22 1502.57 1320.09 1514.65 1320.06 1514.61 1329.27 1526.14 1329.24 1526.1 1338.77 1537.05 1338.74 1537.02 1348.56 1547.35 1348.53 1547.32 1358.62 1557.01 1358.58 1556.98 1368.92 1566 1368.88 1565.96 1379.45 1574.28 1379.4 1574.24 1390.18 1581.82 1390.12 1581.78 1401.08 1588.59 1401.02 1588.55 1412.13 1594.56 1412.07 1594.52 1423.32 1599.69 1423.24 1599.66 1434.61 1603.96 1434.53 1603.93 1445.98 1607.33 1445.9 1607.31 1457.42 1609.78 1457.33 1609.76 1468.89 1611.27 1468.8 1611.26 1480.39 1611.77ZM1220.33 1290.01 1233 1262 1247.81 1288.94Z"/><path d="M0.019136-1.14567 32.2398-0.607495 64.4159 0.985285 96.4651 3.59828 128.325 7.19745 159.932 11.7488 191.224 17.2182 222.138 23.5719 252.611 30.7757 282.58 38.7958 311.983 47.5981 340.757 57.1489 368.839 67.4142 396.167 78.3602 422.677 89.9531 448.307 102.159 472.994 114.944 496.675 128.275 519.288 142.118 540.769 156.439 561.057 171.205 580.088 186.383 597.799 201.94 614.121 217.835 621.753 225.911 629.01 234.055 635.889 242.269 642.383 250.548 648.484 258.889 654.185 267.288 659.475 275.74 664.349 284.242 668.797 292.789 672.812 301.377 676.386 310.002 679.509 318.66 682.175 327.346 684.374 336.056 686.099 344.786 687.341 353.532 688.093 362.287 688.344 371.026 688.543 388.423 688.543 388.397 689.131 405.75 689.13 405.725 690.095 423.01 690.093 422.986 691.422 440.169 691.419 440.133 695.12 474.058 695.114 474.011 700.122 507.121 700.114 507.074 706.327 539.097 706.319 539.061 709.847 554.58 709.841 554.556 713.632 569.701 713.626 569.676 717.668 584.414 717.661 584.388 721.942 598.684 721.934 598.657 726.441 612.478 726.431 612.45 731.152 625.761 731.141 625.732 736.063 638.499 736.05 638.468 741.16 650.658 741.146 650.625 746.432 662.203 746.415 662.168 751.864 673.101 751.844 673.063 757.444 683.316 757.421 683.275 763.159 692.815 763.13 692.769 768.994 701.562 768.959 701.513 774.936 709.524 774.893 709.47 780.97 716.666 780.917 716.607 787.082 722.954 787.015 722.89 793.255 728.354 793.056 728.214 803.209 733.849 802.096 735.853 791.837 730.158 785.47 724.584 779.245 718.175 773.12 710.922 767.104 702.859 761.209 694.019 755.445 684.435 749.823 674.142 744.355 663.173 739.054 651.56 733.931 639.339 728.997 626.541 724.266 613.202 719.75 599.355 715.462 585.033 711.412 570.27 707.615 555.1 704.081 539.552 697.859 507.487 692.845 474.331 689.139 440.364 687.807 423.15 686.841 405.84 686.252 388.462 686.053 371.062 686.053 371.082 685.803 362.386 685.807 362.451 685.061 353.759 685.068 353.822 683.835 345.139 683.845 345.2 682.132 336.53 682.145 336.588 679.96 327.935 679.975 327.991 677.326 319.359 677.344 319.411 674.239 310.805 674.258 310.855 670.705 302.278 670.725 302.324 666.732 293.782 666.753 293.825 662.327 285.321 662.349 285.361 657.498 276.899 657.521 276.937 652.253 268.522 652.276 268.557 646.6 260.193 646.623 260.226 640.545 251.917 640.568 251.947 634.097 243.697 634.12 243.726 627.264 235.54 627.287 235.566 620.053 227.448 620.076 227.473 612.472 219.427 612.505 219.461 596.221 203.602 596.264 203.642 578.596 188.123 578.637 188.158 559.648 173.013 559.688 173.043 539.44 158.306 539.478 158.333 518.035 144.037 518.072 144.061 495.496 130.241 495.532 130.262 471.887 116.951 471.922 116.97 447.27 104.203 447.304 104.22 421.708 92.03 421.742 92.0454 395.265 80.4671 395.298 80.4809 368.004 69.5481 368.036 69.5606 339.987 59.3072 340.019 59.3185 311.278 49.7785 311.31 49.7887 281.939 40.996 281.972 41.0052 252.035 32.9938 252.067 33.002 221.627 25.8059 221.66 25.8132 190.779 19.4664 190.812 19.4728 159.554 14.0092 159.588 14.0146 128.015 9.46821 128.05 9.47267 96.2255 5.87747 96.2611 5.88092 64.2479 3.27086 64.2843 3.27325 32.1453 1.6823 32.1828 1.68354-0.019136 1.14567ZM802.651 720.357 824.394 742.096 793.957 746.447Z" transform="matrix(-1 1.22465e-16 1.22465e-16 1 1480.39 1613)"/><path d="M0.0492327-1.14478 5.48092-0.911177 10.956-0.20937 16.4209 0.950222 21.8717 2.55907 27.3053 4.60858 32.7188 7.0902 38.1096 9.99555 43.4755 13.3164 48.8143 17.0447 54.1238 21.1728 59.4021 25.6928 64.6471 30.5972 69.8567 35.8787 75.0349 41.5367 85.2505 53.9107 95.2953 67.684 105.144 82.7908 114.776 99.1734 124.173 116.774 133.315 135.536 142.18 155.4 150.749 176.309 159 198.205 166.914 221.031 174.468 244.728 181.644 269.239 188.418 294.505 194.772 320.469 200.683 347.072 206.131 374.256 211.095 401.964 215.553 430.138 219.486 458.718 222.871 487.648 225.687 516.87 227.915 546.324 229.532 575.953 230.518 605.699 230.595 612.576 228.303 612.602 228.226 605.737 228.227 605.762 227.242 576.041 227.243 576.066 225.627 546.461 225.629 546.484 223.403 517.054 223.405 517.078 220.591 487.88 220.593 487.903 217.211 458.996 217.214 459.019 213.285 430.462 213.288 430.484 208.833 402.334 208.837 402.357 203.877 374.672 203.882 374.695 198.439 347.534 198.443 347.557 192.537 320.978 192.543 321.001 186.195 295.062 186.202 295.086 179.434 269.845 179.441 269.87 172.273 245.385 172.281 245.411 164.735 221.741 164.744 221.768 156.84 198.97 156.85 198.999 148.61 177.132 148.622 177.163 140.066 156.285 140.08 156.318 131.23 136.487 131.246 136.522 122.123 117.797 122.142 117.835 112.766 100.274 112.789 100.315 103.182 83.9752 103.21 84.0201 93.392 68.9607 93.426 69.0101 83.4192 55.2888 83.4614 55.3431 73.2863 43.0182 73.3246 43.0623 68.1806 37.4417 68.2101 37.4727 63.0318 32.223 63.065 32.2553 57.8552 27.3838 57.8925 27.4171 52.6538 22.9311 52.6958 22.9653 47.4308 18.872 47.4781 18.9068 42.1894 15.2134 42.2425 15.2484 36.9328 11.9623 36.9922 11.9966 31.6641 9.12508 31.7302 9.15801 26.3864 6.7083 26.4595 6.7388 21.1025 4.71818 21.1825 4.74504 15.815 3.16079 15.9015 3.18271 10.5261 2.04209 10.6183 2.05775 5.23761 1.36805 5.33406 1.37629-0.0492327 1.14478ZM243.147 607.852 229.705 635.504 215.649 608.16Z" transform="matrix(-1 1.22465e-16 1.22465e-16 1 1480.71 1613)"/><path d="M0.110874-1.14046 5.44945-0.621445 10.8639 0.938593 16.2229 3.48174 21.5172 6.96291 26.7418 11.3419 31.8931 16.5826 36.9665 22.6517 41.9561 29.5172 46.8548 37.1475 51.6548 45.5114 56.3475 54.5775 60.9239 64.3145 65.3746 74.6908 69.6901 85.675 73.8605 97.2352 77.8761 109.34 81.7269 121.957 85.4028 135.055 88.8939 148.602 92.1899 162.565 95.2809 176.914 98.1576 191.62 103.222 221.949 107.303 253.311 110.32 285.444 112.191 318.093 112.385 328.065 110.094 328.11 109.9 318.159 109.901 318.202 108.034 285.596 108.037 285.637 105.024 253.545 105.028 253.586 100.952 222.265 100.958 222.306 95.8998 192.013 95.9055 192.045 93.0339 177.364 93.0383 177.386 89.952 163.059 89.957 163.081 86.6662 149.139 86.6718 149.162 83.1867 135.639 83.1931 135.662 79.5239 122.589 79.5312 122.614 75.6883 110.022 75.6966 110.048 71.6901 97.9709 71.6998 97.9989 67.5398 86.4678 67.5512 86.498 63.2481 75.5453 63.2615 75.578 58.8255 65.2359 58.8416 65.2716 54.2828 55.5722 54.3023 55.6115 49.6311 46.5869 49.6549 46.6305 44.8814 38.3129 44.911 38.3616 40.0455 30.7831 40.0828 30.8377 35.1356 24.0304 35.1833 24.0917 30.1645 18.0878 30.2264 18.1561 25.1462 12.9878 25.2274 13.0627 20.096 8.76197 20.2025 8.84119 15.0303 5.44024 15.1686 5.51802 9.96569 3.04898 10.1397 3.11484 4.91634 1.60985 5.12271 1.64926-0.110874 1.14046ZM124.897 323.237 111.686 351 97.4026 323.773Z" transform="matrix(1 0 0 -1 2250 1613)"/><path d="M0.0122022-1.14577 30.6562-0.819415 61.252 0.146272 91.7276 1.73052 122.023 3.91272 152.079 6.67223 181.835 9.98845 211.233 13.8408 240.211 18.2087 268.71 23.0715 296.671 28.4086 324.035 34.1997 350.74 40.424 376.727 47.061 401.938 54.0904 426.312 61.4915 449.789 69.244 472.311 77.3276 493.817 85.7218 514.248 94.4065 533.544 103.362 551.647 112.567 568.497 122.004 584.034 131.651 598.201 141.492 610.928 151.499 616.747 156.572 622.18 161.676 627.225 166.815 631.874 171.986 636.121 177.189 639.957 182.42 643.374 187.679 646.363 192.962 648.917 198.269 651.027 203.596 652.683 208.942 653.878 214.301 654.6 219.672 654.841 225.007 655.131 235.563 655.128 235.501 655.985 246.026 655.979 245.967 657.385 256.451 657.376 256.394 659.314 266.816 659.302 266.761 661.752 277.101 661.738 277.048 664.682 287.285 664.667 287.234 668.087 297.347 668.069 297.299 671.947 307.268 671.928 307.221 676.245 317.025 676.224 316.981 680.962 326.599 680.94 326.556 686.081 335.969 686.057 335.927 691.583 345.113 691.544 345.054 703.675 362.663 703.619 362.588 717.067 379.043 717.004 378.973 731.625 394.109 731.572 394.059 739.276 401.081 739.239 401.048 747.18 407.679 747.141 407.647 755.302 413.866 755.259 413.835 763.622 419.622 763.577 419.592 772.123 424.925 772.074 424.896 780.785 429.755 780.733 429.728 789.59 434.093 789.535 434.067 798.52 437.917 798.461 437.893 807.556 441.207 807.493 441.186 816.68 443.944 816.613 443.926 825.873 446.106 825.735 446.083 830.97 446.657 830.719 448.935 825.415 448.353 816.054 446.149 806.803 443.372 797.647 440.036 788.604 436.162 779.694 431.771 770.933 426.884 762.341 421.522 753.934 415.705 745.731 409.455 737.751 402.792 730.002 395.728 715.323 380.53 701.815 364.002 689.637 346.325 684.081 337.088 678.917 327.634 674.158 317.971 669.82 308.122 665.924 298.106 662.487 287.943 659.528 277.655 657.066 267.262 655.118 256.784 653.704 246.242 652.841 235.656 652.551 225.08 652.551 225.1 652.313 219.826 652.322 219.927 651.613 214.656 651.63 214.752 650.457 209.485 650.481 209.575 648.851 204.317 648.88 204.399 646.802 199.151 646.835 199.226 644.315 193.991 644.35 194.058 641.396 188.838 641.433 188.898 638.053 183.696 638.089 183.749 634.29 178.568 634.327 178.615 630.116 173.456 630.152 173.498 625.537 168.365 625.572 168.402 620.561 163.298 620.594 163.33 615.194 158.257 615.225 158.286 609.444 153.246 609.489 153.283 596.811 143.314 596.865 143.354 582.751 133.55 582.801 133.583 567.31 123.964 567.354 123.99 550.547 114.578 550.588 114.6 532.524 105.414 532.561 105.432 513.3 96.4931 513.334 96.5083 492.936 87.8375 492.967 87.8504 471.492 79.4681 471.522 79.4792 449.029 71.4059 449.057 71.4155 425.606 63.6719 425.633 63.6803 401.285 56.287 401.31 56.2943 376.124 49.2718 376.148 49.2783 350.184 42.6473 350.208 42.6531 323.526 36.4342 323.549 36.4392 296.208 30.653 296.231 30.6575 268.292 25.3246 268.314 25.3286 239.836 20.4695 239.858 20.4731 210.902 16.1085 210.924 16.1116 181.549 12.2621 181.571 12.2648 151.836 8.95103 151.858 8.95328 121.825 6.19581 121.847 6.19765 91.5744 4.01709 91.5972 4.01851 61.1447 2.43545 61.1681 2.43643 30.5959 1.47149 30.6198 1.47199-0.0122022 1.14577ZM827.664 433.656 853.645 450.096 824.904 461.017Z" transform="matrix(1 0 0 -1 2250 1612.1)"/><path d="M2250.06 1611.86 2254.66 1612.09 2259.31 1612.8 2263.95 1613.96 2268.57 1615.58 2273.18 1617.64 2277.77 1620.13 2282.33 1623.05 2286.87 1626.38 2291.38 1630.11 2295.86 1634.25 2300.32 1638.77 2304.75 1643.68 2309.15 1648.97 2313.52 1654.63 2322.14 1667.01 2330.62 1680.79 2338.93 1695.91 2347.06 1712.3 2354.99 1729.9 2362.7 1748.67 2370.19 1768.54 2377.42 1789.46 2384.38 1811.36 2391.06 1834.2 2397.43 1857.9 2403.49 1882.42 2409.2 1907.7 2414.57 1933.67 2419.55 1960.29 2424.15 1987.48 2428.34 2015.2 2432.1 2043.39 2435.42 2071.98 2438.28 2100.92 2440.66 2130.15 2442.53 2159.62 2443.9 2189.26 2444.73 2219.02 2444.8 2225.91 2442.5 2225.93 2442.44 2219.05 2442.44 2219.07 2441.61 2189.34 2441.61 2189.36 2440.25 2159.74 2440.25 2159.76 2438.37 2130.31 2438.37 2130.33 2435.99 2101.12 2436 2101.14 2433.14 2072.22 2433.14 2072.23 2429.83 2043.66 2429.83 2043.68 2426.07 2015.52 2426.07 2015.54 2421.89 1987.84 2421.89 1987.86 2417.3 1960.68 2417.3 1960.7 2412.32 1934.11 2412.32 1934.13 2406.96 1908.17 2406.97 1908.2 2401.25 1882.94 2401.26 1882.96 2395.21 1858.47 2395.22 1858.49 2388.85 1834.81 2388.85 1834.83 2382.18 1812.02 2382.19 1812.05 2375.24 1790.17 2375.25 1790.19 2368.02 1769.31 2368.04 1769.34 2360.57 1749.49 2360.58 1749.53 2352.88 1730.79 2352.89 1730.83 2344.98 1713.26 2345 1713.29 2336.89 1696.95 2336.91 1696.99 2328.63 1681.92 2328.66 1681.97 2320.21 1668.24 2320.25 1668.3 2311.66 1655.97 2311.69 1656.01 2307.35 1650.39 2307.38 1650.42 2303.01 1645.17 2303.04 1645.2 2298.64 1640.33 2298.67 1640.36 2294.25 1635.88 2294.29 1635.91 2289.85 1631.82 2289.89 1631.86 2285.43 1628.16 2285.48 1628.21 2281 1624.92 2281.06 1624.96 2276.57 1622.09 2276.64 1622.13 2272.13 1619.68 2272.2 1619.72 2267.68 1617.69 2267.77 1617.73 2263.24 1616.14 2263.34 1616.17 2258.8 1615.03 2258.91 1615.05 2254.37 1614.36 2254.48 1614.38 2249.94 1614.14ZM2457.36 2221.21 2443.87 2248.84 2429.86 2221.47Z"/><path d="M2250.02 1611.85 2282.02 1612.39 2313.98 1613.99 2345.81 1616.6 2377.45 1620.2 2408.84 1624.75 2439.92 1630.23 2470.62 1636.58 2500.89 1643.79 2530.65 1651.81 2559.86 1660.62 2588.43 1670.18 2616.32 1680.45 2643.46 1691.4 2669.79 1702.99 2695.25 1715.21 2719.77 1728 2743.29 1741.33 2765.75 1755.18 2787.08 1769.51 2807.23 1784.28 2826.13 1799.47 2843.72 1815.03 2859.94 1830.94 2874.71 1847.16 2881.55 1855.38 2888 1863.66 2894.06 1872.01 2899.72 1880.41 2904.98 1888.87 2909.82 1897.37 2914.24 1905.92 2918.22 1914.51 2921.77 1923.14 2924.87 1931.8 2927.52 1940.49 2929.71 1949.21 2931.42 1957.94 2932.65 1966.69 2933.4 1975.45 2933.65 1984.19 2933.92 2001.59 2933.92 2001.56 2934.72 2018.92 2934.72 2018.88 2936.04 2036.18 2936.04 2036.14 2937.85 2053.33 2937.85 2053.3 2940.15 2070.36 2940.14 2070.32 2942.9 2087.21 2942.9 2087.18 2946.1 2103.86 2946.1 2103.83 2949.73 2120.27 2949.73 2120.24 2953.78 2136.41 2953.77 2136.38 2958.21 2152.25 2958.2 2152.22 2963.02 2167.74 2963.01 2167.71 2968.19 2182.86 2968.18 2182.83 2973.71 2197.58 2973.69 2197.54 2979.55 2211.85 2979.53 2211.81 2985.69 2225.64 2985.68 2225.61 2992.13 2238.92 2992.11 2238.89 2998.84 2251.66 2998.82 2251.63 3005.8 2263.82 3005.78 2263.78 3013 2275.37 3012.98 2275.33 3020.43 2286.27 3020.4 2286.23 3028.05 2296.49 3028.02 2296.44 3035.86 2305.99 3035.82 2305.94 3043.83 2314.74 3043.79 2314.69 3051.96 2322.71 3051.91 2322.66 3060.21 2329.86 3060.15 2329.81 3068.58 2336.16 3068.51 2336.11 3077.03 2341.58 3076.95 2341.53 3085.57 2346.08 3085.39 2346 3097.84 2350.13 3097.12 2352.31 3084.58 2348.15 3075.84 2343.53 3067.23 2338.02 3058.74 2331.62 3050.38 2324.37 3042.16 2316.31 3034.11 2307.46 3026.23 2297.88 3018.55 2287.58 3011.07 2276.6 3003.82 2264.98 2996.82 2252.75 2990.07 2239.94 2983.61 2226.59 2977.43 2212.73 2971.57 2198.4 2966.03 2183.62 2960.84 2168.44 2956.01 2152.88 2951.56 2136.98 2947.5 2120.78 2943.86 2104.31 2940.64 2087.59 2937.88 2070.68 2935.58 2053.59 2933.76 2036.37 2932.43 2019.04 2931.63 2001.64 2931.36 1984.23 2931.36 1984.25 2931.11 1975.55 2931.11 1975.61 2930.37 1966.92 2930.38 1966.98 2929.15 1958.29 2929.16 1958.35 2927.46 1949.68 2927.47 1949.74 2925.3 1941.08 2925.32 1941.13 2922.69 1932.5 2922.71 1932.55 2919.62 1923.94 2919.64 1923.99 2916.11 1915.41 2916.13 1915.46 2912.17 1906.91 2912.19 1906.95 2907.79 1898.44 2907.81 1898.49 2903 1890.02 2903.02 1890.06 2897.79 1881.64 2897.81 1881.67 2892.17 1873.31 2892.2 1873.34 2886.16 1865.03 2886.18 1865.06 2879.75 1856.8 2879.78 1856.83 2872.97 1848.64 2873 1848.68 2858.27 1832.51 2858.31 1832.56 2842.14 1816.69 2842.18 1816.73 2824.63 1801.2 2824.67 1801.24 2805.81 1786.09 2805.85 1786.12 2785.75 1771.37 2785.78 1771.4 2764.49 1757.1 2764.52 1757.12 2742.1 1743.3 2742.14 1743.32 2718.65 1730 2718.69 1730.02 2694.21 1717.25 2694.24 1717.26 2668.82 1705.07 2668.85 1705.08 2642.56 1693.5 2642.59 1693.52 2615.48 1682.58 2615.52 1682.59 2587.66 1672.33 2587.69 1672.34 2559.15 1662.8 2559.18 1662.81 2530.01 1654.01 2530.04 1654.02 2500.31 1646.01 2500.34 1646.02 2470.11 1638.82 2470.14 1638.82 2439.47 1632.47 2439.51 1632.48 2408.46 1627.01 2408.49 1627.02 2377.14 1622.47 2377.17 1622.48 2345.57 1618.88 2345.6 1618.88 2313.81 1616.27 2313.84 1616.27 2281.92 1614.68 2281.96 1614.68 2249.98 1614.15ZM3095.5 2336.86 3120.01 2355.43 3090.45 2363.9Z"/></g></svg>