<svg width="4046" height="1522" xmlns="http://www.w3.org/2000/svg" xmlns:xlink="http://www.w3.org/1999/xlink" xml:space="preserve" overflow="hidden"><g transform="translate(-65 -634)"><rect x="82.0002" y="1538" width="4014" height="564" fill="#FBE5D6"/><rect x="82.0002" y="882" width="662" height="396" fill="#E2F0D9"/><path d="M117 1670C117 1628.58 150.579 1595 192 1595L3335 1595C3376.42 1595 3410 1628.58 3410 1670L3410 1970C3410 2011.42 3376.42 2045 3335 2045L192 2045C150.579 2045 117 2011.42 117 1970Z" fill="#B4C7E7" fill-rule="evenodd"/><text font-family="Times New Roman,Times New Roman_MSFontService,sans-serif" font-weight="400" font-size="83" transform="matrix(1 0 0 1 115.431 978)">RayWorkerGroup</text><text font-family="Times New Roman,Times New Roman_MSFontService,sans-serif" font-weight="400" font-size="83" transform="matrix(1 0 0 1 1719.84 1714)">WorkDict</text><path d="M152 1809.5C152 1789.89 167.894 1774 187.501 1774L1017.5 1774C1037.11 1774 1053 1789.89 1053 1809.5L1053 1951.5C1053 1971.11 1037.11 1987 1017.5 1987L187.501 1987C167.894 1987 152 1971.11 152 1951.5Z" fill="#FFF2CC" fill-rule="evenodd"/><text font-family="Times New Roman,Times New Roman_MSFontService,sans-serif" font-weight="400" font-size="83" transform="matrix(1 0 0 1 202.45 1911)">ActorRolloutRefWorker</text><path d="M2000 1809.5C2000 1789.89 2015.89 1774 2035.5 1774L2506.5 1774C2526.11 1774 2542 1789.89 2542 1809.5L2542 1951.5C2542 1971.11 2526.11 1987 2506.5 1987L2035.5 1987C2015.89 1987 2000 1971.11 2000 1951.5Z" fill="#FFF2CC" fill-rule="evenodd"/><text font-family="Times New Roman,Times New Roman_MSFontService,sans-serif" font-weight="400" font-size="83" transform="matrix(1 0 0 1 2054.46 1911)">CriticWorker</text><path d="M1076 1809.5C1076 1789.89 1091.89 1774 1111.5 1774L1942.5 1774C1962.11 1774 1978 1789.89 1978 1809.5L1978 1951.5C1978 1971.11 1962.11 1987 1942.5 1987L1111.5 1987C1091.89 1987 1076 1971.11 1076 1951.5Z" fill="#FFF2CC" fill-rule="evenodd"/><text font-family="Times New Roman,Times New Roman_MSFontService,sans-serif" font-weight="400" font-size="83" transform="matrix(1 0 0 1 1126.63 1911)">ActorRolloutRefWorker</text><path d="M2565 1809.5C2565 1789.89 2580.89 1774 2600.5 1774L3344.5 1774C3364.11 1774 3380 1789.89 3380 1809.5L3380 1951.5C3380 1971.11 3364.11 1987 3344.5 1987L2600.5 1987C2580.89 1987 2565 1971.11 2565 1951.5Z" fill="#FFF2CC" fill-rule="evenodd"/><text font-family="Times New Roman,Times New Roman_MSFontService,sans-serif" font-weight="400" font-size="83" transform="matrix(1 0 0 1 2613.62 1911)">RewardModelWorker</text><path d="M3446 1670C3446 1628.58 3479.58 1595 3521 1595L3841 1595C3882.42 1595 3916 1628.58 3916 1670L3916 1970C3916 2011.42 3882.42 2045 3841 2045L3521 2045C3479.58 2045 3446 2011.42 3446 1970Z" fill="#B4C7E7" fill-rule="evenodd"/><text font-family="Times New Roman,Times New Roman_MSFontService,sans-serif" font-weight="400" font-size="83" transform="matrix(1 0 0 1 3519.11 1714)">WorkDict</text><path d="M3478 1789.33C3478 1780.87 3484.86 1774 3493.33 1774L3554.67 1774C3563.13 1774 3570 1780.87 3570 1789.33L3570 1971.67C3570 1980.13 3563.13 1987 3554.67 1987L3493.33 1987C3484.86 1987 3478 1980.13 3478 1971.67Z" fill="#FFF2CC" fill-rule="evenodd"/><path d="M3584 1789.33C3584 1780.87 3590.86 1774 3599.33 1774L3660.67 1774C3669.13 1774 3676 1780.87 3676 1789.33L3676 1971.67C3676 1980.13 3669.13 1987 3660.67 1987L3599.33 1987C3590.86 1987 3584 1980.13 3584 1971.67Z" fill="#FFF2CC" fill-rule="evenodd"/><path d="M3691 1789.33C3691 1780.87 3697.86 1774 3706.33 1774L3767.67 1774C3776.13 1774 3783 1780.87 3783 1789.33L3783 1971.67C3783 1980.13 3776.13 1987 3767.67 1987L3706.33 1987C3697.86 1987 3691 1980.13 3691 1971.67Z" fill="#FFF2CC" fill-rule="evenodd"/><path d="M3797 1789.33C3797 1780.87 3803.86 1774 3812.33 1774L3873.67 1774C3882.13 1774 3889 1780.87 3889 1789.33L3889 1971.67C3889 1980.13 3882.13 1987 3873.67 1987L3812.33 1987C3803.86 1987 3797 1980.13 3797 1971.67Z" fill="#FFF2CC" fill-rule="evenodd"/><text font-family="Times New Roman,Times New Roman_MSFontService,sans-serif" font-weight="700" font-size="92" transform="matrix(1 0 0 1 3963.54 1879)">…</text><path d="M140 1073.5C140 1053.89 155.894 1038 175.5 1038L651.5 1038C671.106 1038 687 1053.89 687 1073.5L687 1215.5C687 1235.11 671.106 1251 651.5 1251L175.5 1251C155.894 1251 140 1235.11 140 1215.5Z" fill="#EDEDED" fill-rule="evenodd"/><text font-family="Times New Roman,Times New Roman_MSFontService,sans-serif" font-weight="400" font-size="83" transform="matrix(1 0 0 1 189.809 1175)">self._</text><text font-family="Times New Roman,Times New Roman_MSFontService,sans-serif" font-weight="400" font-size="83" transform="matrix(1 0 0 1 370.85 1175)">workers</text><rect x="3434" y="882" width="662" height="396" fill="#E2F0D9"/><text font-family="Times New Roman,Times New Roman_MSFontService,sans-serif" font-weight="400" font-size="83" transform="matrix(1 0 0 1 3467.13 978)">RayWorkerGroup</text><path d="M3492 1073.5C3492 1053.89 3507.89 1038 3527.5 1038L4002.5 1038C4022.11 1038 4038 1053.89 4038 1073.5L4038 1215.5C4038 1235.11 4022.11 1251 4002.5 1251L3527.5 1251C3507.89 1251 3492 1235.11 3492 1215.5Z" fill="#EDEDED" fill-rule="evenodd"/><text font-family="Times New Roman,Times New Roman_MSFontService,sans-serif" font-weight="400" font-size="83" transform="matrix(1 0 0 1 3541.51 1175)">self._</text><text font-family="Times New Roman,Times New Roman_MSFontService,sans-serif" font-weight="400" font-size="83" transform="matrix(1 0 0 1 3722.55 1175)">workers</text><rect x="1161" y="881" width="662" height="396" fill="#E2F0D9"/><text font-family="Times New Roman,Times New Roman_MSFontService,sans-serif" font-weight="400" font-size="83" transform="matrix(1 0 0 1 1194.47 977)">RayWorkerGroup</text><path d="M1219 1072.5C1219 1052.89 1234.89 1037 1254.5 1037L1730.5 1037C1750.11 1037 1766 1052.89 1766 1072.5L1766 1214.5C1766 1234.11 1750.11 1250 1730.5 1250L1254.5 1250C1234.89 1250 1219 1234.11 1219 1214.5Z" fill="#EDEDED" fill-rule="evenodd"/><text font-family="Times New Roman,Times New Roman_MSFontService,sans-serif" font-weight="400" font-size="83" transform="matrix(1 0 0 1 1268.85 1174)">self._</text><text font-family="Times New Roman,Times New Roman_MSFontService,sans-serif" font-weight="400" font-size="83" transform="matrix(1 0 0 1 1449.89 1174)">workers</text><rect x="2355" y="881" width="662" height="396" fill="#E2F0D9"/><text font-family="Times New Roman,Times New Roman_MSFontService,sans-serif" font-weight="400" font-size="83" transform="matrix(1 0 0 1 2388.44 977)">RayWorkerGroup</text><path d="M2413 1072.5C2413 1052.89 2428.89 1037 2448.5 1037L2924.5 1037C2944.11 1037 2960 1052.89 2960 1072.5L2960 1214.5C2960 1234.11 2944.11 1250 2924.5 1250L2448.5 1250C2428.89 1250 2413 1234.11 2413 1214.5Z" fill="#EDEDED" fill-rule="evenodd"/><text font-family="Times New Roman,Times New Roman_MSFontService,sans-serif" font-weight="400" font-size="83" transform="matrix(1 0 0 1 2462.82 1174)">self._</text><text font-family="Times New Roman,Times New Roman_MSFontService,sans-serif" font-weight="400" font-size="83" transform="matrix(1 0 0 1 2643.86 1174)">workers</text><path d="M0.103466-1.14115 3.5695-0.826894 7.1177 0.131959 10.6329 1.70448 14.1122 3.86947 17.5576 6.60926 20.9728 9.90988 24.3613 13.76 27.7257 18.1496 31.0675 23.0697 34.3874 28.5113 37.6855 34.4656 40.9615 40.9236 44.2146 47.8766 47.4439 55.3153 50.6482 63.2308 53.8264 71.6137 56.9769 80.4549 60.0985 89.745 63.1897 99.4747 66.249 109.634 69.2748 120.215 72.2655 131.207 75.2197 142.601 78.1358 154.387 81.012 166.556 83.8475 179.1 89.3862 205.264 94.7407 232.81 99.8973 261.658 104.843 291.732 109.565 322.956 114.05 355.254 118.284 388.548 122.256 422.762 125.951 457.819 129.356 493.644 132.459 530.158 135.246 567.286 137.704 604.951 139.82 643.077 141.581 681.586 142.973 720.402 143.984 759.448 144.6 798.648 144.809 837.919 145.017 877.184 145.017 877.172 145.633 916.36 145.633 916.349 146.643 955.383 146.643 955.372 148.035 994.177 148.034 994.166 149.795 1032.66 149.794 1032.65 151.909 1070.77 151.909 1070.76 154.366 1108.41 154.365 1108.4 157.151 1145.52 157.151 1145.5 160.252 1182.01 160.251 1182 163.656 1217.81 163.654 1217.8 167.348 1252.84 167.347 1252.83 171.317 1287.03 171.315 1287.02 175.548 1320.3 175.546 1320.29 180.029 1352.57 180.027 1352.56 184.747 1383.77 184.745 1383.75 189.688 1413.81 189.685 1413.8 194.839 1442.63 194.835 1442.61 200.186 1470.14 200.183 1470.12 205.718 1496.27 205.714 1496.25 208.547 1508.78 208.544 1508.77 211.418 1520.93 211.415 1520.92 214.328 1532.69 214.325 1532.68 217.276 1544.06 217.272 1544.05 220.259 1555.03 220.255 1555.01 223.277 1565.58 223.272 1565.56 226.327 1575.71 226.322 1575.69 229.407 1585.4 229.401 1585.38 232.516 1594.66 232.51 1594.64 235.653 1603.46 235.645 1603.43 238.814 1611.8 238.805 1611.77 241.999 1619.66 241.988 1619.64 245.205 1627.05 245.192 1627.02 248.431 1633.94 248.415 1633.91 251.673 1640.33 251.654 1640.29 254.93 1646.21 254.906 1646.17 258.198 1651.56 258.168 1651.52 261.476 1656.39 261.437 1656.33 264.758 1660.67 264.455 1660.39 268.417 1662.86 267.204 1664.81 263.066 1662.22 259.599 1657.7 256.257 1652.78 252.937 1647.34 249.639 1641.38 246.363 1634.93 243.11 1627.97 239.88 1620.53 236.676 1612.62 233.498 1604.24 230.348 1595.4 227.226 1586.11 224.135 1576.38 221.076 1566.22 218.05 1555.64 215.059 1544.64 212.105 1533.25 209.189 1521.46 206.313 1509.29 203.477 1496.75 197.939 1470.59 192.584 1443.04 187.428 1414.19 182.482 1384.12 177.76 1352.89 173.276 1320.6 169.041 1287.3 165.07 1253.09 161.375 1218.03 157.969 1182.21 154.867 1145.69 152.08 1108.56 149.622 1070.9 147.506 1032.77 145.745 994.265 144.352 955.449 143.342 916.402 142.725 877.202 142.517 837.931 142.309 798.666 142.309 798.678 141.693 759.49 141.693 759.502 140.683 720.467 140.683 720.478 139.291 681.674 139.291 681.685 137.531 643.187 137.532 643.198 135.416 605.084 135.417 605.095 132.96 567.441 132.96 567.452 130.174 530.335 130.175 530.347 127.073 493.843 127.074 493.855 123.67 458.042 123.671 458.054 119.977 423.008 119.979 423.02 116.009 388.818 116.01 388.831 111.777 355.549 111.779 355.562 107.296 323.278 107.298 323.292 102.578 292.082 102.581 292.097 97.6373 262.038 97.64 262.053 92.4863 233.221 92.4895 233.238 87.1385 205.711 87.1423 205.729 81.6071 179.583 81.6105 179.598 78.778 167.066 78.7805 167.077 75.9069 154.92 75.9097 154.931 72.9967 143.157 72.9998 143.17 70.0489 131.789 70.0525 131.802 67.0654 120.824 67.0694 120.838 64.0478 110.272 64.0523 110.288 60.9979 100.144 61.003 100.16 57.9173 90.4479 57.9232 90.466 54.8079 81.1947 54.8147 81.2144 51.6715 72.3938 51.6794 72.4154 48.5099 64.0551 48.5192 64.0789 45.325 56.1885 45.3361 56.2148 42.1189 48.8039 42.1321 48.8332 38.8935 41.9113 38.9095 41.9441 35.6512 35.5209 35.6707 35.5577 32.3944 29.6427 32.4185 29.6843 29.1257 24.2871 29.156 24.3342 25.8484 19.4644 25.8868 19.5176 22.566 15.1849 22.6153 15.2449 19.2831 11.4587 19.3469 11.5256 16.0048 8.29559 16.0879 8.3685 12.7375 5.70427 12.8453 5.78029 9.48842 3.69143 9.62589 3.76451 6.26403 2.26059 6.43301 2.3208 3.06786 1.41141 3.26332 1.44641-0.103466 1.14115ZM271.118 1649.72 287.324 1675.85 256.698 1673.14Z" transform="matrix(1.83697e-16 1 1 -1.83697e-16 413 1251)"/><path d="M0.0731672-1.14349 6.90422-0.706406 13.7859 0.598599 20.6277 2.73547 27.4147 5.67268 34.1341 9.37928 40.7739 13.8252 47.3226 18.9812 53.7687 24.8188 60.1007 31.31 66.3068 38.4273 72.3751 46.1434 78.2933 54.4308 84.049 63.2626 89.6298 72.6116 95.0229 82.4508 100.216 92.7529 105.195 103.491 109.948 114.638 114.462 126.166 118.727 138.057 126.439 162.77 132.988 188.583 138.265 215.271 142.165 242.608 143.567 256.466 144.584 270.4 145.204 284.389 145.413 298.389 145.622 312.372 145.621 312.339 146.24 326.294 146.238 326.262 147.253 340.163 147.25 340.131 148.648 353.95 148.642 353.904 152.534 381.187 152.524 381.127 157.79 407.755 157.776 407.695 164.31 433.449 164.293 433.389 171.989 458.05 171.974 458.004 176.225 469.857 176.213 469.826 180.715 481.323 180.702 481.291 185.441 492.406 185.427 492.373 190.391 503.078 190.374 503.044 195.55 513.312 195.531 513.277 200.905 523.08 200.884 523.044 206.442 532.355 206.419 532.317 212.149 541.11 212.121 541.069 218.01 549.315 217.978 549.273 224.012 556.945 223.975 556.901 230.141 563.972 230.097 563.925 236.382 570.368 236.331 570.318 242.722 576.106 242.661 576.055 249.144 581.159 249.073 581.107 255.635 585.501 255.551 585.45 262.179 589.106 261.91 589 266.575 590.194 266.006 592.414 261.2 591.183 254.401 587.433 247.761 582.987 241.213 577.831 234.767 571.993 228.435 565.502 222.228 558.385 216.16 550.669 210.242 542.381 204.486 533.549 198.905 524.2 193.512 514.361 188.32 504.059 183.34 493.321 178.587 482.174 174.073 470.646 169.809 458.756 162.096 434.042 155.547 408.229 150.27 381.541 146.37 354.204 144.969 340.346 143.951 326.412 143.331 312.423 143.122 298.423 142.913 284.44 142.914 284.474 142.295 270.518 142.297 270.55 141.282 256.649 141.285 256.681 139.887 242.862 139.893 242.908 136.001 215.625 136.011 215.685 130.746 189.057 130.759 189.117 124.225 163.363 124.242 163.423 116.546 138.762 116.562 138.808 112.311 126.955 112.322 126.986 107.821 115.489 107.834 115.521 103.094 104.406 103.109 104.439 98.1445 93.7339 98.1608 93.7676 92.9854 83.4999 93.0038 83.5349 87.6303 73.7316 87.6513 73.7682 82.0928 64.4567 82.1168 64.495 76.3866 55.7025 76.4141 55.7428 70.5255 47.4967 70.5573 47.5392 64.5234 39.8668 64.5605 39.9116 58.3945 32.8403 58.4379 32.8873 52.153 26.4444 52.2041 26.4936 45.8136 20.7063 45.8739 20.7573 39.391 15.653 39.4623 15.7048 32.9 11.3109 32.9841 11.3621 26.3558 7.70579 26.4542 7.75406 19.7731 4.86271 19.8866 4.90485 13.1659 2.80577 13.294 2.83782 6.54686 1.55834 6.68718 1.57606-0.0731672 1.14349ZM265.146 576.856 288.535 596.812 258.537 603.55Z" transform="matrix(1.83697e-16 1 1 -1.83697e-16 1492 1250)"/><path d="M2687.3 1250.07 2686.86 1256.9 2685.56 1263.79 2683.42 1270.63 2680.48 1277.41 2676.77 1284.13 2672.32 1290.77 2667.17 1297.32 2661.32 1303.77 2654.83 1310.1 2647.71 1316.31 2639.99 1322.38 2631.7 1328.29 2622.86 1334.05 2613.5 1339.63 2603.66 1345.02 2593.35 1350.22 2582.61 1355.2 2571.45 1359.95 2559.92 1364.46 2548.02 1368.73 2523.29 1376.44 2497.47 1382.99 2470.76 1388.27 2443.41 1392.16 2429.54 1393.57 2415.6 1394.58 2401.6 1395.2 2387.6 1395.41 2373.6 1395.62 2373.64 1395.62 2359.67 1396.24 2359.71 1396.24 2345.8 1397.25 2345.83 1397.25 2332 1398.65 2332.05 1398.64 2304.75 1402.53 2304.81 1402.52 2278.17 1407.79 2278.23 1407.78 2252.46 1414.31 2252.52 1414.29 2227.84 1421.99 2227.89 1421.97 2216.03 1426.22 2216.06 1426.21 2204.56 1430.71 2204.59 1430.7 2193.47 1435.44 2193.5 1435.43 2182.79 1440.39 2182.82 1440.37 2172.55 1445.55 2172.58 1445.53 2162.77 1450.9 2162.81 1450.88 2153.49 1456.44 2153.53 1456.42 2144.73 1462.15 2144.77 1462.12 2136.52 1468.01 2136.57 1467.98 2128.89 1474.01 2128.93 1473.97 2121.86 1480.14 2121.91 1480.1 2115.46 1486.38 2115.51 1486.33 2109.72 1492.72 2109.77 1492.66 2104.66 1499.14 2104.71 1499.07 2100.32 1505.64 2100.37 1505.55 2096.71 1512.18 2096.82 1511.91 2095.62 1516.58 2093.4 1516.01 2094.63 1511.2 2098.39 1504.4 2102.83 1497.76 2107.99 1491.21 2113.83 1484.77 2120.33 1478.43 2127.45 1472.23 2135.17 1466.16 2143.46 1460.24 2152.3 1454.49 2161.65 1448.91 2171.5 1443.51 2181.81 1438.32 2192.55 1433.34 2203.7 1428.59 2215.24 1424.07 2227.14 1419.81 2251.86 1412.1 2277.69 1405.55 2304.4 1400.27 2331.75 1396.37 2345.62 1394.97 2359.56 1393.95 2373.55 1393.33 2387.56 1393.12 2401.55 1392.91 2401.52 1392.91 2415.48 1392.3 2415.45 1392.3 2429.36 1391.28 2429.33 1391.28 2443.16 1389.89 2443.11 1389.89 2470.41 1386 2470.35 1386.01 2496.99 1380.75 2496.93 1380.76 2522.7 1374.23 2522.64 1374.24 2547.32 1366.55 2547.27 1366.56 2559.13 1362.31 2559.1 1362.32 2570.6 1357.82 2570.57 1357.83 2581.69 1353.09 2581.66 1353.11 2592.37 1348.14 2592.34 1348.16 2602.61 1342.99 2602.58 1343 2612.38 1337.63 2612.35 1337.65 2621.66 1332.09 2621.63 1332.12 2630.42 1326.39 2630.38 1326.41 2638.63 1320.53 2638.59 1320.56 2646.27 1314.52 2646.22 1314.56 2653.3 1308.39 2653.25 1308.44 2659.7 1302.15 2659.65 1302.2 2665.44 1295.81 2665.39 1295.87 2670.5 1289.39 2670.45 1289.46 2674.84 1282.9 2674.79 1282.98 2678.45 1276.36 2678.4 1276.45 2681.29 1269.77 2681.25 1269.89 2683.35 1263.17 2683.32 1263.29 2684.6 1256.55 2684.58 1256.69 2685.01 1249.93ZM2108.96 1515.15 2089 1538.54 2082.27 1508.54Z"/><path d="M3765.99 1251.1 3765.68 1254.57 3764.72 1258.12 3763.15 1261.63 3760.98 1265.11 3758.24 1268.56 3754.94 1271.97 3751.09 1275.36 3746.7 1278.73 3741.78 1282.07 3736.34 1285.39 3730.38 1288.69 3723.93 1291.96 3716.97 1295.21 3709.53 1298.44 3701.62 1301.65 3693.24 1304.83 3684.4 1307.98 3675.11 1311.1 3665.38 1314.19 3655.22 1317.25 3644.64 1320.27 3633.64 1323.27 3622.25 1326.22 3610.46 1329.14 3598.29 1332.01 3585.75 1334.85 3559.59 1340.39 3532.04 1345.74 3503.19 1350.9 3473.12 1355.84 3441.89 1360.56 3409.6 1365.05 3376.3 1369.28 3342.09 1373.26 3307.03 1376.95 3271.21 1380.36 3234.69 1383.46 3197.56 1386.25 3159.9 1388.7 3121.77 1390.82 3083.26 1392.58 3044.45 1393.97 3005.4 1394.98 2966.2 1395.6 2926.93 1395.81 2887.67 1396.02 2887.68 1396.02 2848.49 1396.63 2848.5 1396.63 2809.47 1397.64 2809.48 1397.64 2770.67 1399.03 2770.68 1399.03 2732.19 1400.79 2732.2 1400.79 2694.08 1402.91 2694.1 1402.91 2656.44 1405.37 2656.45 1405.37 2619.34 1408.15 2619.35 1408.15 2582.84 1411.25 2582.85 1411.25 2547.04 1414.66 2547.05 1414.65 2512.01 1418.35 2512.02 1418.35 2477.82 1422.32 2477.83 1422.32 2444.55 1426.55 2444.56 1426.55 2412.28 1431.03 2412.29 1431.03 2381.08 1435.75 2381.1 1435.74 2351.04 1440.69 2351.05 1440.68 2322.22 1445.84 2322.24 1445.84 2294.71 1451.19 2294.73 1451.18 2268.58 1456.72 2268.6 1456.71 2256.07 1459.55 2256.08 1459.54 2243.92 1462.42 2243.93 1462.41 2232.16 1465.33 2232.17 1465.32 2220.79 1468.28 2220.8 1468.27 2209.82 1471.26 2209.84 1471.26 2199.27 1474.28 2199.29 1474.27 2189.14 1477.33 2189.16 1477.32 2179.45 1480.41 2179.47 1480.4 2170.19 1483.52 2170.21 1483.51 2161.39 1486.65 2161.42 1486.64 2153.06 1489.81 2153.08 1489.81 2145.19 1493 2145.21 1492.99 2137.8 1496.21 2137.83 1496.19 2130.91 1499.43 2130.94 1499.41 2124.52 1502.67 2124.56 1502.65 2118.64 1505.93 2118.68 1505.91 2113.29 1509.2 2113.33 1509.17 2108.46 1512.48 2108.52 1512.44 2104.19 1515.76 2104.46 1515.45 2101.99 1519.42 2100.04 1518.2 2102.63 1514.07 2107.15 1510.6 2112.07 1507.26 2117.51 1503.94 2123.47 1500.64 2129.92 1497.36 2136.88 1494.11 2144.32 1490.88 2152.23 1487.68 2160.61 1484.5 2169.46 1481.35 2178.74 1478.23 2188.47 1475.13 2198.63 1472.08 2209.22 1469.05 2220.21 1466.06 2231.6 1463.1 2243.39 1460.19 2255.56 1457.31 2268.1 1454.48 2294.26 1448.94 2321.81 1443.58 2350.66 1438.43 2380.73 1433.48 2411.96 1428.76 2444.25 1424.28 2477.55 1420.04 2511.76 1416.07 2546.82 1412.37 2582.64 1408.97 2619.16 1405.87 2656.29 1403.08 2693.95 1400.62 2732.08 1398.51 2770.59 1396.74 2809.4 1395.35 2848.45 1394.34 2887.65 1393.73 2926.92 1393.52 2966.18 1393.31 2966.17 1393.31 3005.36 1392.69 3005.35 1392.69 3044.38 1391.68 3044.37 1391.68 3083.18 1390.29 3083.17 1390.29 3121.66 1388.53 3121.65 1388.53 3159.77 1386.42 3159.76 1386.42 3197.41 1383.96 3197.4 1383.96 3234.52 1381.17 3234.5 1381.17 3271.01 1378.07 3271 1378.07 3306.81 1374.67 3306.8 1374.67 3341.84 1370.98 3341.83 1370.98 3376.03 1367.01 3376.02 1367.01 3409.3 1362.78 3409.29 1362.78 3441.57 1358.3 3441.56 1358.3 3472.77 1353.58 3472.75 1353.58 3502.81 1348.64 3502.8 1348.64 3531.63 1343.49 3531.61 1343.49 3559.14 1338.14 3559.12 1338.14 3585.27 1332.61 3585.25 1332.61 3597.78 1329.78 3597.77 1329.78 3609.93 1326.91 3609.92 1326.91 3621.69 1324 3621.68 1324 3633.06 1321.05 3633.05 1321.05 3644.03 1318.07 3644.01 1318.07 3654.58 1315.05 3654.56 1315.05 3664.71 1312 3664.69 1312 3674.4 1308.92 3674.38 1308.92 3683.66 1305.81 3683.64 1305.81 3692.46 1302.67 3692.44 1302.68 3700.8 1299.51 3700.77 1299.52 3708.66 1296.32 3708.64 1296.34 3716.05 1293.12 3716.02 1293.13 3722.94 1289.89 3722.91 1289.91 3729.33 1286.65 3729.29 1286.67 3735.21 1283.39 3735.17 1283.42 3740.56 1280.13 3740.52 1280.16 3745.39 1276.85 3745.33 1276.89 3749.67 1273.57 3749.61 1273.62 3753.39 1270.28 3753.32 1270.35 3756.55 1267 3756.48 1267.09 3759.15 1263.74 3759.07 1263.85 3761.16 1260.49 3761.09 1260.63 3762.59 1257.26 3762.53 1257.43 3763.44 1254.07 3763.4 1254.26 3763.71 1250.9ZM2115.13 1522.12 2089 1538.32 2091.71 1507.7Z"/><text font-family="Times New Roman,Times New Roman_MSFontService,sans-serif" font-weight="400" font-size="83" transform="matrix(1 0 0 1 149.705 742)">Actor Model </text><text font-family="STKaiti,STKaiti_MSFontService,sans-serif" font-weight="400" font-size="83" transform="matrix(1 0 0 1 594.288 742)">的</text><text font-family="STKaiti,STKaiti_MSFontService,sans-serif" font-weight="400" font-size="83" transform="matrix(1 0 0 1 165.746 841)">分布式进程组</text><text font-family="Times New Roman,Times New Roman_MSFontService,sans-serif" font-weight="400" font-size="83" transform="matrix(1 0 0 1 1263.12 740)">Ref Model </text><text font-family="STKaiti,STKaiti_MSFontService,sans-serif" font-weight="400" font-size="83" transform="matrix(1 0 0 1 1638.95 740)">的</text><text font-family="STKaiti,STKaiti_MSFontService,sans-serif" font-weight="400" font-size="83" transform="matrix(1 0 0 1 1244.78 839)">分布式进程组</text><text font-family="Times New Roman,Times New Roman_MSFontService,sans-serif" font-weight="400" font-size="83" transform="matrix(1 0 0 1 2422.71 742)">Critic Model </text><text font-family="STKaiti,STKaiti_MSFontService,sans-serif" font-weight="400" font-size="83" transform="matrix(1 0 0 1 2867.3 742)">的</text><text font-family="STKaiti,STKaiti_MSFontService,sans-serif" font-weight="400" font-size="83" transform="matrix(1 0 0 1 2438.75 841)">分布式进程组</text><text font-family="Times New Roman,Times New Roman_MSFontService,sans-serif" font-weight="400" font-size="83" transform="matrix(1 0 0 1 3464.02 742)">Rewar</text><text font-family="Times New Roman,Times New Roman_MSFontService,sans-serif" font-weight="400" font-size="83" transform="matrix(1 0 0 1 3679.44 742)">d</text><text font-family="Times New Roman,Times New Roman_MSFontService,sans-serif" font-weight="400" font-size="83" transform="matrix(1 0 0 1 3741.31 742)">Model </text><text font-family="STKaiti,STKaiti_MSFontService,sans-serif" font-weight="400" font-size="83" transform="matrix(1 0 0 1 3977.35 742)">的</text><text font-family="STKaiti,STKaiti_MSFontService,sans-serif" font-weight="400" font-size="83" transform="matrix(1 0 0 1 3514.44 841)">分布式进程组</text><text font-family="STKaiti,STKaiti_MSFontService,sans-serif" font-weight="400" font-size="83" transform="matrix(1 0 0 1 299.971 2082)">封装</text><text font-family="Times New Roman,Times New Roman_MSFontService,sans-serif" font-weight="400" font-size="83" transform="matrix(1 0 0 1 481.036 2082)">Actor Model</text><text font-family="STKaiti,STKaiti_MSFontService,sans-serif" font-weight="400" font-size="83" transform="matrix(1 0 0 1 1242.79 2080)">封装</text><text font-family="Times New Roman,Times New Roman_MSFontService,sans-serif" font-weight="400" font-size="83" transform="matrix(1 0 0 1 1428.41 2080)">Ref Model</text><text font-family="STKaiti,STKaiti_MSFontService,sans-serif" font-weight="400" font-size="83" transform="matrix(1 0 0 1 1966.37 2083)">封装</text><text font-family="Times New Roman,Times New Roman_MSFontService,sans-serif" font-weight="400" font-size="83" transform="matrix(1 0 0 1 2152 2083)">Critic Model</text><text font-family="STKaiti,STKaiti_MSFontService,sans-serif" font-weight="400" font-size="83" transform="matrix(1 0 0 1 2641.43 2083)">封装</text><text font-family="Times New Roman,Times New Roman_MSFontService,sans-serif" font-weight="400" font-size="83" transform="matrix(1 0 0 1 2827.06 2083)">Reward Model</text></g></svg>